<svg height="40" viewBox="0 0 40 40" width="40" xmlns="http://www.w3.org/2000/svg"><g fill="none" fill-rule="evenodd"><circle cx="20" cy="20" fill="#777" r="20"/><path d="m25.7052632 23.8526316c.2842119.2842119.4263157.6236822.4263157 1.018421s-.1421038.7342091-.4263157 1.0184211c-.284212.2526328-.6236823.3789474-1.0184211.3789474s-.7342091-.1263146-1.018421-.3789474l-3.1263158-3.6-3.1263158 3.6c-.284212.2526328-.6236823.3789474-1.0184211.3789474s-.7342091-.1263146-1.018421-.3789474c-.2526329-.284212-.3789474-.6236823-.3789474-1.0184211s.1263145-.7342091.3789474-1.018421l3.268421-3.6947369-3.268421-3.7421052c-.2526329-.284212-.3789474-.6236823-.3789474-1.0184211s.1263145-.7342091.3789474-1.018421c.2842119-.2526329.6236822-.3789474 1.018421-.3789474s.7342091.1263145 1.0184211.3789474l3.1263158 3.6 3.1263158-3.6c.2842119-.2526329.6236822-.3789474 1.018421-.3789474s.7342091.1263145 1.0184211.3789474c.2842119.2842119.4263157.6236822.4263157 1.018421s-.1421038.7342091-.4263157 1.0184211l-3.2684211 3.7421052z" fill="#fff"/></g></svg>