<svg height="65.8" viewBox="0 0 350 65.8" width="350" xmlns="http://www.w3.org/2000/svg"><g fill="#fff"><path d="m312.93 54.78c1.87 0 3.57.09 5.27 0s3.27-.19 3.7-2.51l-14.8-38.22h14.81l7.09 20.18h.39l6.91-20.23h13.6c.3.71-.14 1.24-.35 1.77-4.82 12.74-9.84 25.41-14.45 38.23-2.69 7.48-7.67 11.1-15.5 11.1-2.19 0-4.37.07-6.68-.12z"/><path d="m167 42v11.36a44.16 44.16 0 0 1 -14-.42c-4.46-1-7.06-3.82-7.76-8.37a26.78 26.78 0 0 1 -.32-4.18c0-4.86 0-9.72 0-14.72h-6.12v-11.67h6.83l2.27-8.5 10.53-2.28v10.58c2.93.39 5.72 0 8.58.27v11.52h-8.54v6 6.4c0 3 1 3.93 4 4 1.46.01 2.97.01 4.53.01z"/><path d="m119.47 14.06h13.53v39.18h-13.53z"/><path d="m64.24 53.31h-13.55v-39.22h13.55z"/><path d="m119.44.06h13.61v10.94h-13.61z"/><path d="m50.68 11v-10.9h13.63v10.9z"/><path d="m113.23 51.4c0-.67-.09-1.34-.19-2a7.51 7.51 0 0 0 -4.71-6.24 22.32 22.32 0 0 0 -6-1.47 118.19 118.19 0 0 0 -11.86-.54 7 7 0 0 1 -3.47-.59 1.33 1.33 0 0 1 -.07-1.62 2.76 2.76 0 0 1 .67-.09 50.68 50.68 0 0 0 8-.1 24.66 24.66 0 0 0 8.52-1.88 9.44 9.44 0 0 0 5.88-6.57c1-4.13 1-8.12-2.8-11.19 1.58-.39 3 .14 4.5-.38v-9.85a2 2 0 0 0 -1.38 0c-3.32.76-6.65 1.6-10 2.29-3.92.8-7.74 2.12-11.84 2a23.44 23.44 0 0 0 -9.84 1.83c-3.86 1.62-6.45 4.39-7.1 8.61-.74 4.83-.1 9.27 4.32 12.35.13.09.16.3.23.44-2.5 4.22-2.35 7.41.57 11-.39.55-.94.5-1.38.67-4.72 1.82-6.67 5-6.09 10a6.76 6.76 0 0 0 4.17 5.77 17.37 17.37 0 0 0 4.74 1.28 90.36 90.36 0 0 0 15.32.65 41.77 41.77 0 0 0 10.65-1.43c6.5-1.97 9.5-6.18 9.16-12.94zm-26.12-27.62a14.22 14.22 0 0 1 7.38 0c1.74.46 2.41 1.47 2.45 3.37s-.66 3-2.38 3.62a4.65 4.65 0 0 1 -1.05.28c-.91.08-1.82.11-2.73.16a11.76 11.76 0 0 1 -3.78-.48 3.21 3.21 0 0 1 -2.28-3.53c.01-1.89.7-2.97 2.39-3.42zm9.4 32.75a25.44 25.44 0 0 1 -11.23 0 2.58 2.58 0 0 1 -2.34-3c.06-1.53.71-2.24 2.57-2.53a28.72 28.72 0 0 1 5.73-.31 27.12 27.12 0 0 1 5 .24c2 .27 2.82 1.05 2.9 2.45.1 1.62-.71 2.72-2.63 3.15z"/><path d="m245.87 0v15.77a19.51 19.51 0 0 0 -4.18-1.92 27.55 27.55 0 0 0 -9.22-.66c-7.23.46-12.22 4.45-14.07 11.46a34.4 34.4 0 0 0 .26 18.75c1.54 5.23 4.86 8.92 10.28 10.1 6.61 1.44 13.06 1.1 19-2.86.43 1 .95 2.07 1.42 3.2 3.45-.1 6.78-.59 10.43-.87v-52.97zm-.45 37.82a5.73 5.73 0 0 1 -4.42 4.18c-4.68 1.09-9.23.4-9.73-6.63 0-.61 0-1.22 0-1.53a12.73 12.73 0 0 1 .31-4.11 5 5 0 0 1 4.48-4.19 13.87 13.87 0 0 1 6 .35 4.77 4.77 0 0 1 3.58 3.77 16.41 16.41 0 0 1 -.21 8.16z"/><path d="m28.64 0v15.81a15.82 15.82 0 0 0 -4.14-2 27.22 27.22 0 0 0 -9.24-.67c-7.26.5-12.26 4.5-14.08 11.5a34.43 34.43 0 0 0 .25 18.76c1.56 5.31 5 9 10.46 10.14 6.54 1.35 13 1 18.79-2.92.44 1 .95 2.08 1.43 3.21 3.45-.1 6.78-.59 10.43-.88v-52.95zm-.44 37.8a5.92 5.92 0 0 1 -4.39 4.2h-.18c-4.73 1.05-9.06.09-9.55-6.48-.08-.65-.08-1.38-.08-2.11a13.67 13.67 0 0 1 .33-3.41 5.06 5.06 0 0 1 4.67-4.45 14.18 14.18 0 0 1 5.61.31 4.87 4.87 0 0 1 3.82 4 16.58 16.58 0 0 1 -.24 7.94z"/><path d="m305.91 42.08c-1.56-.24-1.87-.57-1.93-2.1 0-.55 0-1.1 0-1.64-.12-4.87.28-9.74-.34-14.6-.69-5.5-3.39-8.72-8.78-9.81a41.67 41.67 0 0 0 -25.54 2.63 8.43 8.43 0 0 0 -2.91 1.72l6.81 9.95a20.53 20.53 0 0 1 3.47-1.7 22.17 22.17 0 0 1 10.94-1.29c2.08.27 2.71.84 3.13 3a96 96 0 0 0 -9.78.31 28.74 28.74 0 0 0 -10.11 2.17 9.73 9.73 0 0 0 -5.76 7.07 20.59 20.59 0 0 0 -.32 5.09c.14 5.8 3 9.42 8.71 10.5 6.86 1.3 13.67 1.42 19.71-2.89 3.89 4.65 9 3 13.75 2.92v-11.21c-.38-.05-.76-.07-1.05-.12zm-19.33.61a16.26 16.26 0 0 1 -6.5.11c-1.54-.31-2.24-1-2.37-2.33a2.72 2.72 0 0 1 2-3.07 16.23 16.23 0 0 1 3.75-.66 55.31 55.31 0 0 1 7.19-.15c.35 3.58-.86 5.41-4.07 6.11z"/><path d="m213 26.58c-1.5-7-5.86-11.16-12.76-12.7a35.74 35.74 0 0 0 -16.11.07c-6.88 1.62-11.11 5.95-12.55 12.92a32.73 32.73 0 0 0 .07 13.77 15.59 15.59 0 0 0 11.72 12.44 32.46 32.46 0 0 0 8.84 1.09 40.38 40.38 0 0 0 6.18-.43c7.66-1.11 12.76-5.45 14.46-12.52a32.65 32.65 0 0 0 .15-14.64zm-13.61 11.54a5.37 5.37 0 0 1 -4.07 4 11.9 11.9 0 0 1 -5.24.17c-2.91-.52-4.4-2.08-5-5a14.18 14.18 0 0 1 -.29-3.26 14.55 14.55 0 0 1 .3-3.44 5.67 5.67 0 0 1 4.63-4.78 12.23 12.23 0 0 1 5.42 0 5.45 5.45 0 0 1 4.39 4.35 16.14 16.14 0 0 1 -.14 7.96z"/></g></svg>