<svg enable-background="new 0 0 106 36.7" height="36.7" viewBox="0 0 106 36.7" width="106" xmlns="http://www.w3.org/2000/svg"><path d="m91.7 19.1c0-.1-.1 0-.1 0s0 0 0-.1v-.1s0 .1-.1.2c-.1 0-.1-.1-.1-.1-.1 0-.1-.1 0-.2s0-.1.1-.1c0 0 0 0 0-.1l-.2.1c0-.1.1-.1.1-.2-.1-.3-.6-1.9-.8-2.1-.6.6-3.3 3.2-5.4 3.3-.1 0-.2.1-.2 0-.4-.1 0-1.1.1-1.3.2-.6.6-1.1.9-1.7s.6-1.2.9-1.8c.8-1.6 1.4-3.3 2.2-4.9.6-1.3 1.2-2.6 1.7-3.9.3-.7.4-1.5.6-2.2.1-.4.2-.7.2-1.1.1-.3.3-.6.2-.9 0-.1-.1-.3-.2-.4s-.1-.2-.2-.4c-.4-.1-.6-.4-.8-.6s-.4-.3-.7-.4c-.1 0-.3 0-.4 0s-.3-.1-.4-.1-.2.1-.2.2v.2c0 .2 0 .3-.1.5-1.1 2.8-2.2 5.6-3.5 8.3-.5 1.1-1.1 2.1-1.6 3.2-.6 1.3-1.3 2.5-1.8 3.8-.5 1.1-1.2 2.8-.8 4 .1.5.5.9.8 1.2.5.4 1 .8 1.6 1 .3.1.6.2.9.2.2.1.4.1.4.1h.5.1.3c.1 0 .2 0 .2.1 0 0 0 .1.1.1s.2 0 .2.1 0 0 0-.1v-.1h.1c.1 0 .1.1.2.1h.1s0 0 0-.1c0 0 0 0-.1-.1v-.1c.1 0 .2-.1.3 0s.4.1.5.1c.1-.1.2 0 .3-.1h.1s0 0 0-.1c-.1-.1-.2-.1-.3-.2.1 0 .2 0 .2.1.2.1.3.1.5 0-.1 0-.1-.1-.2-.1s-.1 0-.2 0 .1 0 .1-.1c.4-.1.9-.3 1.3-.5.2-.1.4-.2.6-.4.1-.1.2-.1.3-.2s.1-.2.2-.2c0 0 .1 0 0-.1 0-.1 0-.2.1-.3v-.1s0 0 0-.1c0 0 .1-.1.1-.1h.1c0 .1 0 .1.1 0 0 0 .1-.1.1-.1 0-.1.1-.2.1-.3s0-.1.1-.1h.2s0 0 0-.1v.1c.1.1 0 .3 0 .4 0 0-.1.1 0 .1 0 0 .1 0 .1-.1.2-.1.3-.3.3-.6 0-.1 0-.1 0-.2v-.1c0-.1 0-.1.1-.2v-.1s-.1-.1-.1-.1c0-.1.1 0 .1 0h.1c.1.5 0 .4 0 .3zm-1.4 1.9c-.1.2-.3.4-.6.6h-.1c.3-.2.4-.4.7-.6z"/><path d="m61.1 12.9c-.3-.3-.8-.5-1.2-.6-.9-.4-1.9-.6-2.9-.7-1.6-.2-3.2-.1-4.8 0-.2 0-.6-.1-.8 0 1.4-.9 2.8-1.7 4.2-2.4.7-.4 1.5-.7 2.2-1 .6-.3 1.4-.7 2.1-.8s.1-.1.1-.1c.1-.1.1-.1.1-.1.1 0 .1 0 .1-.1h.1s.1-.1.1-.1c0-.1 0-.1.1-.1h.1s0 0-.1 0-.1 0-.1-.1v-.1s-.1-.1-.1-.1c0-.3 0-.5 0-.8v-.1s-.1-.1-.1-.1c0-.1 0-.1 0-.2s-.1-.1-.1-.1c-.1 0-.1-.1-.2-.1 0-.1 0-.1 0-.2s0-.1 0-.2c-.1-.1-.1-.1-.1-.1v-.1s-.1-.1-.1-.1h-.1s0 0-.2-.1v-.1s-.1-.1-.1-.1-.1-.1-.1-.1-.1-.1-.1-.1-.1-.1-.1-.1h-.1s0 0-.1-.1c0 0 0 0-.1.1 0 0 0 0-.1 0s-.1 0-.2.1c-.1 0-.2 0-.3 0-.2.1-.2.1-.2.1-.4 0-.8.3-1.1.4-.5.2-1 .4-1.5.6-.6.2-1.3.5-1.9.8-.1 0-.2 0-.3 0-.1.1-.3.1-.5.1-.1 0-.2 0-.2.1.1-.1 0-.1-.1-.1-.2 0-.4.1-.5.1s-.3.1-.4.2-.2.1-.3.1h-.1s0 .1-.1.1-.1 0-.2.1-.3.2-.4.1c-.1 0-.1 0-.2 0-.2.1-.3.2-.5.3s-.2.1-.1.3v.1s0 0-.1 0c-.2-.1-.2 0-.3.1s0 .1 0 .2 0 .2-.1.2c-.2.1-.3.2-.5.2-.1 0-.2 0-.4 0 0 0-.1 0-.1.1h.1c.1 0 .1 0 .1.1s0 .1-.1.1h-.1c-.3 0-.5.2-.7.5v.1h.1s0 0-.1 0c-.1.1-.1.1-.2.2-.1 0-.1.1 0 .2 0 .1.1.1.2 0v-.1h.1s-.1.1-.1.1v.1c0 .2-.1.3-.3.3s-.2.1-.3.3c-.1.3-.2.7-.2 1.1v.2.5c-.1.3.1.6.2.9v.1c.2.4.4.8.7 1.1.2.2.5.4.7.4 1.5.4 3.2 0 4.6-.1 1.7-.1 3.3-.2 5 0 .4 0 .7.2 1 .4.3.3.3.8.1 1.2s-.5.7-.8 1c-3.9 2.9-8.1 5.3-12.3 7.8-.4.3-.8.5-1.3.8-.4.3-.9.5-1.3.8-.3.2-1.1.8-1.4.9-.1.1-.3.2-.5.2-.1 0-.1 0-.2 0-.1.1-.1.2-.2.3s-.3 0-.4.1c-.1 0-.1.1-.2.2-.2.2-.4.3-.6.3-.1 0-.3.1-.2.2-.6.3-1.5.6-1.9 1.2v.1s0 0 .1.1c.1 0 .1 0 .2.1h.5.1c0 .1.1 0 .1 0h.1c.1.1.1.1.1.1h.3.1c.1 0 .1.1.2.1 0 0 0 0 .1.1 0 0 .1.1.1.1s.1 0 .1.1c.1 0 .1 0 .2.1 0 0 .1.1.1.1h.1.1c.1 0 .1.1.2.1s.1 0 .1.1c0 0 .1.1.1.1h.1.3.1s0 0 .1.1c0 0 0 0 .1.1h.1.1c.5.2 1.1 0 1.6-.2.1 0 .2-.1.3-.1l-.6.4s.5-.1.5-.1c.6-.2.6-.2 1.2-.6.1 0 .2-.1.3-.1-.1.1-.1.2-.2.2-.1.1-.3.2-.4.4v.1c.3-.2.6-.3.9-.7.1-.1.2-.3.3-.3-.1.2-.3.4-.4.6v.1h.1c.2-.1.3-.3.5-.3h.1c.2-.3.6-.4.8-.8.1-.2.3-.3.5-.3.1 0 .1 0 .1.1s0 .1-.1.2v.1s.1 0 .1-.1c.1-.1.2-.2.2-.3.1-.1.1-.2.2-.2s.1.1.1.1v.1s0 .1.1 0 .2-.3.4-.3.1-.1.1-.1c0-.1.1-.3.2-.3.1-.1.3-.3.4-.3s.1 0 .1-.1c.2-.2.5-.4.7-.6.3-.2.6-.5.8-.7.2-.1.3-.2.5-.3 1.1-.7 2.3-1.3 3.4-2 1.6-1 3.2-2.4 4.6-3.6 1.1-1.1 2.5-2.3 3.2-3.7.2-.5.5-.9.6-1.4.1-1.2-.7-2.4-1.5-3.2zm-13.5-3.9c0-.1 0-.1 0 0 0-.1.1-.2.1-.1.1 0 0 0-.1.1zm-8 19.7c0-.1 0-.1 0 0z"/><path d="m44.3 13.5c-.6.7-1 1.3-1.4 2.1-.5 1.2-1 2.4-1.6 3.5-.8 1.7-1.7 3.3-2.5 5l-1.1 3.2c0-.2-.1-.4-.1-.6v-.1s0 0 0-.1c0 0 0 0-.1 0-.1.2-.3.4-.3.6 0 .3-.2.6-.3.9-.1.2-.1.3-.2.5 0 .1 0 .2-.1.1 0 .1-.1.2-.1.3v.1c-.1 0-.1-.1-.1-.1 0-.2-.1-.3 0-.5-.1.2-.1.4-.1.6s0 .4-.1.5c0 .1-.1.2-.1.3 0 .3-.1.5-.2.8 0 .1 0 .1-.1.2 0 .1 0 .2-.1.3v.1c-.1 0-.1 0-.1.1s0 .2-.1.2-.1.1-.1.1c-.3.7-.6 1.5-.9 2.2s.2-.3-.1.4c-.2.6-.5 1.3-.7 1.9 0 .1-.1.2-.1.3h-.1s-.1-.1-.1-.1 0 0-.1 0c-.1.1-.1.1-.2.3v.1c-.1 0-.1.1-.2.1s-.2 0-.3 0c0 0-.1 0-.1-.1-.8-.2-2.3-.4-2.3-1.2 0-.1 0-.1 0-.1-.3-.3.2-1 .3-1.3.8-1.7 1.3-2.9 2-4.7.6-1.3 1.1-2.6 1.7-3.9.3-.7.6-1.3.9-2 .3-.6.7-1.3.9-1.9-.2.1-.3.2-.5.3 0 0 0 0-.1.1-.2-.1-.3 0-.4 0s-.2.1-.3 0h-.1c-.1 0-.1.1-.2.1-.2.1-.4.2-.6.2-.1 0-.1 0-.2 0s-.2 0-.3-.1c0-.1-.1-.1-.1-.1h-.1c-.2-.1-.3-.1-.4-.1-.2-.1-.4-.2-.5-.3-.1 0-.1-.1-.1-.2 0 0 0 0-.1-.1s-.1-.1-.2-.2c-.2-.3-.3-.6-.4-.9s-.1-.7 0-1c.1-.6.4-1.3.7-1.8.6-1.3 1.3-2.5 2.1-3.8.1-.2.2-.4.4-.6.1-.1.1-.2.2-.4s0-.4.1-.5c.3-.5 1-.4 1.4-.2.5.3.8.8.8 1.4 0 .7-.2 1.3-.5 1.9s-.5 1.3-.8 1.9c-.2.4-.9 1.3-.6 1.8.6-.2 1.1-.8 1.6-1.2.7-.6 1.5-1.1 2.2-1.8.1-.2.3-.3.4-.5 0 0 0-.1.1-.1.3-.4.5-.8.7-1.2.3-.6.3-1.3.7-1.9.3-.5.8-.6 1.3-.6.6 0 1.3.3 1.8.5.4.3.7.8.3 1.3z"/><path d="m79.9 11.4c.3 0 .5 0 .7.1.4.1.7.3 1.1.4.1 0 .3.1.4.2.4.3 0 .8-.2 1.1-.4.6-.6 1.3-.9 2-.7 1.8-1.6 3.6-2.4 5.4s-1.7 3.7-2.5 5.6c-.5 1.2-1.1 2.5-1.6 3.8-1 2.5-1.1 3.3-2 5.9-.1.3-.2.6-.5.8-.2.1-.5 0-.7 0l-1-.2c-.2-.1-.4-.1-.6-.2-1.8-.9-.5-2.2 0-3.5.8-2 1.1-3 1.9-5 .4-1 .8-2.1 1.2-3.1s.9-1.9 1.3-2.9c0-.1.1-.4 0-.4s-.3.2-.3.3c-.7.5-1.7.7-2.5.5-.7-.2-1.2-.7-1.5-1.3-.2-.5-.2-1.2-.1-1.7.2-.8.7-1.7 1-2.4.5-.9.9-1.9 1.5-2.8.3-.5.6-1 .6-1.6 0 .1.4-.2.4-.2.3-.1.7-.1 1 .1 1.2.6.8 2.2.5 3.2-.2.7-.5 1.3-.8 1.9-.2.5-.7 1.4-.6 1.9.3 0 .5-.3.7-.4.9-.7 1.8-1.5 2.5-2.4.8-.9 1.5-2.1 1.9-3.2.1-.2.1-.4.1-.6 0-.1 0-.1 0-.2.1-1 .8-1.1 1.4-1.1z"/><path d="m105.4 16.3c-.2.2-.7.7-.9.4v-.1c-.3.2-.7.4-1 .7-.1.1-.2.1-.3.2-.3.2-.6.4-.9.5-.3.2-.7.3-1 .5-1.6.7-3.3 1.2-5.1 1-.5 0-.9-.1-1.4-.4-.4-.2-.8-.6-.9-1-.2-.5-.1-1 .1-1.5 1 .1 2 0 2.9-.4 1.4-.7 2.3-2.2 1.8-3.7-.1-.2-.1-.3-.2-.5s-.3-.4-.4-.6-.2-.4-.4-.6-.3-.4-.5-.5c-.1-.2-.1-.3-.2-.3-.3-.1-.6.1-.9.2-.5.2-1 .5-1.5.8-.8.5-1.5 1.2-1.9 2-.5 1-.7 2.1-.7 3.2 0 1.3.4 2.6 1.4 3.7.1.1.2.3.4.4.6.6 1.4 1.2 2.3 1.6.3.1.6.2.8.2.1.1.1.1.1.1.5 0 .9.1 1.4.1h.1c.1-.1.5 0 .6 0 .2 0 .4 0 .6-.1.5-.1.9-.2 1.4-.3-.1 0-.2-.1-.3-.1 0 0 .1 0 .1-.1.2-.2.4-.3.7-.5.4-.3.9-.4 1.3-.7.3-.2.6-.5.9-.8.4-.4.8-.9.9-1.5.1-.2.3-.5.3-.8 0 0 0 0 0-.1.1 0 .2-.4.2-.5.1-.2.2-.4.3-.6s.3-.4.4-.6c0 0 0-.2.1-.4-.2.6-.4.8-.6 1.1zm-8.9-4.1c.1-.1.2-.2.3-.4.1 1.4-1.1 2.6-2.3 3.1-.1.1-.3.1-.5.2.7-1 1.6-1.9 2.5-2.9zm9.4 3.3s.1 0 0 0c.1-.1.1-.1 0 0 .1-.1 0-.1 0 0z"/><path d="m80.7 7.6c0 .1-.1.1 0 .1-.1.1-.1.2-.1.3v.1c-.1.1-.1.2-.2.3s-.1.2-.1.3 0 .1-.1.1c-.1.2-.2.3-.2.3-.1.1-.2.1-.3.2-.1 0-.2.1-.2.1-.1 0-.1.1-.2.1s-.2 0-.3 0-.2 0-.2 0c-.3 0-.6 0-.9 0-1 0-2.1 0-3.1 0s-1.9.2-2.9.1c-.4 0-.8-.1-1.2-.1-.3 0-.4.3-.5.6-.3.6-.7 1.2-1 1.8-.5.8-.9 1.6-1.3 2.4-.9 1.8-2.2 3.8-2.3 5.8v.1c.1.1.6-.2.8-.3 1.5-.8 3.7-3.7 4.2-4.2.1-.1.5-.6.6-.6l-.4 4c0-.2 0-.4 0-.6v-.1c-.1.1-.1.1-.2.2 0 .1 0 .1-.1.1 0 0 0 0-.1.1v.1c0 .1 0 .1-.1.1s-.1 0-.1.1-.5.5-.6.6c-.7.8-1.6 1.5-2.6 2-.2.1-.4.2-.6.2-.8.2-2-.4-2.5-1-.6-.7-1.1-1.3-1-2.3v-.1c0-.7.3-1.4.5-2 .5-1.2 1-2.5 1.6-3.6.3-.6.6-1.2.9-1.8.2-.4.4-.8.6-1.2 0-.1 0-.1-.1-.1-.4 0-.9 0-1.3.1-.1 0-.2 0-.4 0-.1 0-.1-.1-.2-.2 0 0-.1-.1-.1-.1s0 0 0-.1 0-.1-.1-.1-.1-.1-.1-.2 0 0 0-.1.1-.1 0-.2c0-.3 0-.5 0-.8 0-.1.2-.3.3-.3h.1c.1.1.1.1.2 0 .2-.1.5-.1.8-.1h.2.1c.5 0 1-.1 1.5-.1s.7-.4.9-.7c.1-.2.2-.5.4-.7.5-.5 1.1-.2 1.7-.1.3 0 .7.1 1 .4.1.1.2.2.3.4v.5c-.2.3.6.1.7.1 1.4 0 2.9 0 4.3-.1h2.6c.2 0 .3 0 .5-.1.2 0 .4-.1.6-.2.1 0 .2-.1.3-.2h.1.1c-.1.5-.1.6-.2.7z"/><path d="m35.4 3.6c-.1.3-.3.6-.4.8-.2.4-.5.8-.7 1.3-1.2 2.1-2.5 4.2-3.6 6.5-.6 1.3-1.3 2.9-1.9 4.5-.1.3-.2.6-.3.9-.3.7-.5 1.4-.7 2.1-.1.6-.3 1.3 0 1.9 0 0 .1.1.1.1s.4 0 .7-.1c0 0 .1-.1.2-.1.4-.3.9-.5 1.4-.7.1 0 .2-.1.3-.1h.1v.1c0 .1-.1.1-.1.2-.1.1-.1.1-.2.2-.2.1-.2.3-.3.4 0 .1-.1.2-.2.3s-.2.2-.2.4c0 .1-.1.3-.2.4-.1 0-.1.1-.1.2s0 .1-.1.2c-.1.2-.2.4-.3.7v.2c0 .1 0 .1-.1.2 0 0-.1.1-.1.1-.1 0-.2.1-.2.3 0 .1-.1.1-.1.2-.1.1-.2.2-.2.3 0 0 0 .1-.1.1s-.2.1-.2.1c-.1.1-.2.1-.3.1s-.1.1-.2.2c-.1 0-.1 0-.2 0 0 0 0 0-.1 0-.2.2-.4.3-.6.3-.1 0-.1 0-.2 0s-.1 0-.2 0h-.5c-.5 0-1-.2-1.4-.5-.4-.2-.6-.5-.7-.9-.1-.3-.1-.7-.1-1.2.1-1.6.5-3.3 1-5 .1-.3.3-.8.5-1.5.4-1.1 1-2.5 1.1-3.3l.1-.3c0 .1 0 .3-.1.4 0 .1 0 .2-.2.2-.1 0-.1.1-.1.1 0 .1-.2.3-.1.4v.1c-.1 0-.1.1-.1.2s-.1.2-.1.3c-.4-.2-.4 0-.5.1s-.1.3-.2.4-.1.2-.2.3c-.2.3-.4.7-.7 1-.2.2-.4.5-.5.7 0 0 0 .1-.1.1-.2.1-.2.3-.4.4-.1.1-.2.3-.1.4v.2c-.1.1-.2.3-.3.4 0 .1-.1 0-.1 0v-.1c0-.1 0-.1-.1-.1s-.1.1-.2.2c0 .1-.1.2-.1.3 0 0-.1.1-.1.1s0 0 0-.1 0-.1 0-.2 0-.1-.1-.1c-.1.1-.3.2-.4.5-.1.4-.4.6-.6.9 0 0 0 0-.1.1-.2 0-.3.3-.4.4 0 0-.1.1-.1.1v-.1c.1-.2.2-.4.3-.6-.1.1-.2.3-.2.4-.1.4-.4.7-.7.9 0 0 0 0-.1 0v-.1c.1-.2.1-.3.3-.5.1-.1.1-.2.2-.3-.1 0-.2.1-.2.2-.6.5-1.2.9-1.7 1.3l.1-.1c-.1.1-.2.1-.4.1s-.4 0-.6-.1c-.8-.4-1.4-1.2-1.6-2-.1-.7.1-1.4.2-2 .1-.3.2-.7.3-1 .2-.7.4-1.5.5-2.2v-.1h-.1c-.2 0-.3.1-.3.2v.1c-.7 1-1.7 2.2-2.6 3.3-.5.6-1.1 1.2-1.5 1.8-.6.7-3.5 4.2-4.1 5-.2.3-.4.5-.7.8 0 0-.1.1-.1.1h.2s-.2.1-.3.2c-.1 0-.2.1-.2.1-.1.3-.3.5-.5.7-.1.1-.1.3-.2.3-.1.1-.2.1-.3.3 0 0-.1.1-.1 0-.1 0-.2 0-.3.1h-.1s0-.1-.1 0c-.1 0-.1.1-.2.1v.1c.1 0 .1.1 0 .1 0 0 0 0-.1 0s-.3 0-.4.1c-.1 0-.1 0-.1.2v.3c.2.1.3.1.5 0s.1-.1.1 0-.1.1-.1.2c-.1.1-.4.2-.6.2-.1 0-.2 0-.2-.1h-.1c-.1.1-.2 0-.3.1h-.1c0-.1-.1-.1-.1-.1-.1.1 0 .1 0 .2v.1c-.1 0-.2-.1-.3-.2s0-.1 0-.2c0 0 0 0 0-.1h-.1-.1s0 0 .1-.1.1 0 .2-.1c0-.1-.1-.1-.1-.2-.1-.1-.2-.1-.2 0 0 0-.1 0-.1.1-.1 0-.1-.1-.1-.2-.1-.1-.3-.1-.4-.1-.2.1-.4 0-.5-.2-.3-.3-.4-.6-.5-1-.2-.5-.6-.7-1.1-1 1-.1 1.9-.4 2.7-1 .9-.7 1.5-1.6 2.2-2.4l2.1-2.4c.5-.5.9-1.1 1.4-1.6.5-.6 1.3-1.6 2.4-2.9 1.9-2.3 4.5-5.4 6.7-8 1.2-1.4 2.2-2.4 2.9-3.2 1.1-1.1 1.5-1.3 1.6-1.3.4.1.8.7 1 1.1v.1c.1.2.2.5.1.8s-.2.6-.3.8-.1.3-.2.4c-.4.9-.8 1.9-1.1 2.9-.6 1.8-1.2 3.8-1.8 6 0 0 .8-.6 1.2-.9.2-.1 6.1-6.1 9.5-10.1.1-.1.2-.2.3-.3 0-.1.1-.1.1-.2s.1-.2.1-.3c0 0 .1-.1.1-.1.1-.2.2-.4.3-.6 0-.1.1-.2.2-.3s.1-.1.1 0c.1 0 .1 0 .2-.1 0 0 0-.1.1-.1 0 0 0-.1.1-.1h.1v.1.1h.1c.1-.2.3-.4.5-.4 0 0 .1 0 .1-.1.1-.1.2-.1.2-.1.1 0 .2 0 .3-.1h.2c-.4.4-.2.4 0 .3h.2c.1.1.3 0 .4.1h.1.1c.2 0 .3.1.5.2.1.1.3.2.4.4v.1c0 .3 0 .6-.1.9z"/></svg>