<svg height="160" viewBox="0 0 160 160" width="160" xmlns="http://www.w3.org/2000/svg"><g fill="none" fill-rule="evenodd"><path d="m0 160h160v-160h-160z" fill="#e0211d"/><g fill="#fff"><path d="m135.068 9.352v-.684h-24.53l-.015.874 5.545 1.944v60.374l-4.776 1.674-.005 1.134h36.781v-10.652l-1.476-.185-4.007 5.837h-13.517v-58.168zm-86.736 3.315 3.483 6h1.254v-10h-41v10h1.508l3.479-6h9.013v58.533l-7 2.362v1.106h27.27l-.22-.978-7.05-2.49v-58.533zm24.601 36 6.997-29.703 4.886 29.703zm28.954 23.544-12.705-63.544h-13.71l-15.472 63.544-3.93 1.35v1.106h18v-1.106l-5.99-1.398 4.059-18.496h13.205l2.914 18.461-4.176 1.631.008.908h21.98v-1.106l-4.182-1.35z"/><path d="m71.72 136.369c0-6.309-2.575-9.847-8.02-16.932l-10.293-11.92c-4.007-5.215-4.615-7.199-4.615-10.619 0-5 3.698-8.681 10.712-8.647 1.824.011 5.205 1.484 6.755 3.521l2.68 3.895h1.13v-9.835c-3-1.181-7.7-1.682-11.777-1.711-4.205-.035-21.13.48-21.13 16.046 0 4.153 2.073 7.947 5.877 13.03l10.677 14.26c1.917 2.564 6.336 6.656 6.334 11.96-.007 4.786-3.974 7.614-10.143 7.609-2.7 0-5.55-1.416-7.102-3.779l-3.719-6.58h-1.018v12.858c4 1.593 11.126 1.716 11.693 1.716 12.313 0 21.958-4.962 21.958-14.872m19.163-11.702 6.997-29.703 4.886 29.703zm28.478 22.96-12.228-63.96h-13.709l-15.45 63.96-3.905 1.766v.274h18v-.274l-6.014-1.814 4.033-18.912h13.207l2.912 18.878-4.176 1.423.008.7h21.03v-.275z"/></g></g></svg>