<svg enable-background="new 0 0 960 196" preserveAspectRatio="xMinYMid" viewBox="0 0 960 196" xmlns="http://www.w3.org/2000/svg"><path d="m0 0h960v196h-960z" fill="#da2128"/><g fill="#fff"><path d="m922 44.309c0 3.863-3.007 19.922-5.755 29.667-1.052 3.855-2.867 5.449-6.013 5.449-3.299 0-4.368-2.264-4.423-8.316-.153-12.183-.589-19.489-9.054-19.489-1.705 0-2.693.721-3.015 2.43-2.727 14.914-6.302 37.966-12.764 83.425-.115 1.018-.263 2.303-.263 3.151 0 4.741.098 5.835 2.862 7.315 1.857.992 2.718 2.311 2.718 4.435 0 3.443-3.579 4.478-6.45 4.478-3.736 0-7.739-.742-15.902-.742-7.921 0-11.348.742-15.631.742-5.318 0-6.594-1.883-6.594-4.622 0-2.273 1.12-3.638 2.99-4.431 3.142-1.281 4.987-2.014 6.195-8.464 5.526-29.811 11.356-77.959 12.018-82.416.5-3.291 0-5.301-2.019-5.301-10.877 0-11.869 8.6-14.901 19.201-1.997 7.078-4.728 8.452-7.306 8.452-3.732 0-4.444-2.133-4.444-6.297 0-3.295 4.156-25.227 5.025-29.099.763-3.43 1.582-5.309 6.866-5.309 4.448 0 5.318 1.442 9.486 1.442h50.594c4.152 0 6.751-1.582 10.025-1.582 4.894-.001 5.755 2.582 5.755 5.881"/><path d="m762.144 44.586c0 2.735-1.569 3.728-4.3 4.881-1.79.746-3.558 1.302-4.444 6.162-7.294 39.968-12.612 83.858-12.612 86.86 0 3.151.717 4.453 3.282 5.598 1.582.695 2.587 1.87 2.587 4.147 0 3.036-2.426 4.622-6.883 4.622-3.677 0-8.027-.598-14.906-.598-7.743 0-12.179.598-16.199.598-6.17 0-6.734-2.315-6.734-4.478 0-2.129 1.124-3.719 4.139-5.161 2.15-1.001 3.766-1.845 5.029-8.019 1.87-9.164 6.603-39.853 9.457-61.506h-.297c-19.494 43.152-25.079 58.499-25.079 58.499-.611 1.408-1.717 3.439-3.588 3.439h-6.013c-1.306 0-2.188-.856-2.578-3.155l-9.605-57.914h-.437c-5.309 38.988-6.586 49.458-6.586 49.458-.581 4.334-1.196 13.93-1.196 14.469 0 3.736 1.141 4.711 2.773 5.309 1.582.581 3.138 1.722 3.138 4.58 0 3.007-2.421 4.478-6.153 4.478-1.976 0-4.728-.539-8.736-.539-4.737 0-6.174.539-8.464.539-4.597 0-6.323-1.734-6.323-4.19 0-3.435 2.125-4.499 4.177-5.156 3.147-.992 4.47-4.139 5.441-8.876 3.897-18.909 11.178-79.57 11.606-83.005.585-4.588-.53-5.563-3.286-6.747-2.739-1.132-3.732-2.858-3.732-4.72 0-2.727 2.15-4.444 6.162-4.444 3.918 0 8.032.852 14.923.852 5.14 0 8.222-.852 10.86-.852 5.182 0 7.162 1.446 7.904 6.306l6.594 42.86h.297c10.449-22.649 18.345-42.431 18.345-42.431 1.925-4.419 3.443-6.734 9.028-6.734 3.036 0 7.468.844 13.621.844 5.737 0 9.346-.844 11.895-.844 5.324 0 6.893 1.717 6.893 4.868"/><path d="m571.893 44.162c0 3.011-1.433 4.143-4.728 5.441-2.875 1.141-3.299 2.574-4.448 9.032-4.728 26.652-14.193 91.881-14.193 91.881-.84 5.436-1.87 6.336-5.441 6.336h-6.17c-2.006 0-3.952-1.293-5.585-5.903l-25.66-72.234h-.577c-4.016 28.514-6.314 46.01-6.314 46.01-.789 5.754-1.433 16.335-1.433 17.471 0 3.443 1.289 4.609 3.015 5.449 1.781.907 3.431 1.586 3.431 4.584 0 3.299-2.714 4.622-6.446 4.622-2.171 0-4.724-.53-8.744-.53-5.169 0-7.145.53-9.461.53-3.872 0-5.733-1.582-5.733-4.474 0-2.566 1.281-4.143 4.3-5.161 2.625-.865 3.817-3.015 4.868-7.735 2.828-12.624 10.177-64.508 11.899-79.698.271-2.438.432-5.453.432-6.874 0-2.014-1.009-2.998-2.587-3.592-3.719-1.408-4.58-3.151-4.58-5.301 0-3.011 2.298-4.304 5.309-4.304 3.571 0 8.15.772 12.891.772 4.287-.004 7.315-.772 11.335-.772 3.142 0 4.245.882 6.022 5.877l19.078 53.753h.416c.882-5.458 3.558-25.079 3.558-25.079.81-5.763 1.603-16.216 1.603-19.07 0-3.868-1.221-5.148-2.587-5.733-1.997-.856-3.867-1.857-3.867-4.588 0-3.151 2.294-5.161 6.747-5.161 2.057 0 6.433.784 9.168.789 2.892.004 6.679-.789 8.46-.789 3.877.002 6.022 1.156 6.022 4.451"/><path d="m401.293 48.887c-.331 3.872-2.578 13.909-4.885 21.793-.78 2.676-2.286 4.02-5.017 4.02-3.007 0-5.025-1.87-4.894-5.313.089-2.718.45-5.432.45-10.165 0-4.16-5.012-9.613-13.909-9.613-8.167 0-13.909 4.3-13.909 11.606 0 6.314 2.718 9.601 6.467 13.913 5.725 6.59 8.6 9.749 15.478 17.34 6.471 7.145 12.76 16.767 12.76 31.525 0 18.353-15.622 34.009-40.862 34.009-13.621 0-23.226-4.889-27.954-7.196-2.086-.997-3.265-2.443-2.867-5.572.28-2.303 3.151-14.206 6.009-23.226 1.259-3.94 2.735-6.03 6.318-6.03 2.574 0 4.156 1.569 4.156 5.157 0 2.18-.348 5.068-.568 9.321-.229 4.308-1.013 15.045 16.335 15.045 7.896 0 13.337-5.152 13.337-11.891 0-5.152-.908-10.385-7.167-17.051-4.44-4.737-7.612-8.155-12.616-13.769-9.605-10.75-13.477-18.497-13.477-30.816 0-21.932 17.353-33.976 39.281-33.976 11.471 0 18.065 2.578 22.649 4.444 3.693 1.504 5.169 3.01 4.885 6.445"/><path d="m328.747 71.402c0 3.583-.738 8.456-1.862 12.031-1.756 5.589-3.876 7.315-7.323 7.315-2.434 0-4.584-.276-6.009-.276-3.74 0-5.589 1.421-7.608 3.431-2.286 2.298-3.583 2.731-5.305 2.731-1.857 0-2.426-1.297-2.426-4.453 0-2.142.42-5.449 1.281-9.757 1.09-5.449 3.295-10.737 6.738-10.737 2.01 0 3.159.713 6.734.713 5.309 0 7.298-1.149 8.744-2.718 1.862-2.023 2.735-2.731 4.737-2.731 1.583-.002 2.299 1.869 2.299 4.451"/><path d="m327.447 101.505c0 3.583-.746 8.452-1.857 12.039-1.747 5.568-3.88 7.302-7.311 7.302-2.426 0-4.588-.293-6.022-.293-3.728 0-5.593 1.455-7.595 3.439-2.298 2.307-3.592 2.748-5.309 2.748-1.862 0-2.434-1.302-2.434-4.465 0-2.129.424-5.436 1.285-9.741 1.098-5.462 3.299-10.746 6.734-10.746 2.019 0 3.168.708 6.751.708 5.301 0 7.294-1.145 8.748-2.718 1.849-2.014 2.705-2.718 4.72-2.718 1.569.001 2.29 1.858 2.29 4.445"/><path d="m242.578 44.309c0 3.863-3.011 19.922-5.729 29.667-1.077 3.855-2.867 5.449-6.022 5.449-3.303 0-4.38-2.264-4.448-8.316-.144-12.183-.568-19.489-9.028-19.489-1.722 0-2.697.721-3.015 2.43-2.727 14.914-6.302 37.966-12.76 83.425-.14 1.018-.284 2.303-.284 3.151 0 4.741.093 5.835 2.871 7.315 1.862.992 2.722 2.311 2.722 4.435 0 3.443-3.592 4.478-6.45 4.478-3.727 0-7.739-.742-15.906-.742-7.892 0-11.335.742-15.635.742-5.309 0-6.598-1.883-6.598-4.622 0-2.273 1.115-3.638 3.007-4.431 3.155-1.281 4.966-2.014 6.17-8.464 5.547-29.811 11.377-77.959 12.035-82.416.496-3.291 0-5.301-1.997-5.301-10.903 0-11.899 8.6-14.914 19.201-2.014 7.078-4.728 8.452-7.311 8.452-3.727 0-4.448-2.133-4.448-6.297 0-3.295 4.164-25.227 5.021-29.099.763-3.43 2.15-5.309 7.459-5.309 4.007 0 4.156 1.442 8.893 1.442h50.594c4.168 0 6.747-1.582 10.046-1.582 4.874-.001 5.727 2.582 5.727 5.881"/><path d="m163.017 123.579c0 3.855-3.588 19.791-6.747 28.946-1.48 4.359-3.151 5.296-9.461 5.296-4.58 0-16.911-1.705-34.4-1.705-10.22 0-16.848.738-18.213.738-5.309 0-6.603-1.472-6.603-4.622 0-2.273 1.124-3.647 3.015-4.435 3.155-1.281 4.868-2.01 6.174-8.464 5.568-27.78 11.64-76.967 12.043-81.415.594-6.577-.148-7.451-2.303-8.6-1.866-1.001-3.007-2.146-3.007-4.444 0-3.007 1.722-5.156 8.464-5.156 3.715 0 9.461.712 14.185.712 6.878 0 9.465-.712 13.048-.712 7.311 0 8.748 1.717 8.748 4.588 0 2.438-1.438 4.152-3.88 5.012-2.311.818-3.575 1.722-4.44 5.737-2.867 13.315-6.743 36.838-12.76 82.416-.127 1.022-.288 2.303-.288 3.151 0 2.744 1.289 4.317 4.737 4.317 12.332 0 18.748-11.055 21.928-22.522.84-3.011 2.578-4.58 5.453-4.58 2.297 0 4.307 1.001 4.307 5.742"/><path d="m98.36 44.309c0 2.718-1.289 4.029-3.88 5.017-2.286.874-3.583 1.717-4.444 5.729-2.858 13.324-6.734 36.838-12.773 82.42-.115 1.022-.263 2.591-.263 3.439 0 4.728.03 5.699 2.862 7.027 2.035.95 2.71 2.311 2.71 4.435 0 3.159-2.557 4.478-6.297 4.478-4.156 0-10.932-.785-17.352-.78-5.589.013-10.165.78-14.333.78-5.301 0-6.59-1.582-6.59-4.622 0-2.273 1.162-3.537 3.002-4.431 2.879-1.395 4.902-2.006 6.174-8.464 5.432-27.789 11.64-76.967 12.031-81.411.606-6.577-.148-7.455-2.277-8.6-1.87-1.001-3.028-2.443-3.028-4.737 0-3.007 2.154-4.872 8.456-4.872 3.443 0 7.9.721 14.35.721s9.745-.721 12.904-.721c7.591-.001 8.748 1.581 8.748 4.592"/><path d="m834.834 152.235c0 3.151-2.871 4.618-6.895 4.618-4.003 0-8.159-.746-13.617-.746-6.738 0-10.618.746-15.05.746-4.732 0-6.883-1.726-6.883-4.618 0-2.714 1.425-4.72 4.894-5.865 2.544-.874 3.473-2.587 3.57-7.035l.297-13.035c.042-2.159-.594-2.443-1.879-2.443h-17.911c-2.15 0-2.693.751-3.316 2.15-2.434 5.458-5.869 13.193-5.869 17.772 0 1.306.568 3.002 2.595 3.872 1.87.848 3.13 2.303 3.13 4.584 0 2.595-1.561 4.618-6.009 4.618-2.731 0-5.292-.534-9.601-.534-4.024 0-5.737.534-7.892.534-3.867 0-5.729-1.582-5.729-4.474 0-2.129 1.293-3.969 3.147-4.584 4.308-1.395 6.234-6.272 7.162-8.46 20.138-46.549 32.139-76.398 32.139-76.398 1.221-2.939 2.994-7.446 2.994-8.888 0-2.727-.869-3.681-2.867-4.584-1.569-.717-2.426-1.429-2.426-4.012 0-3.299 2.298-4.733 8.731-4.733 13.481 0 17.217-2.154 23.51-2.154 4.169 0 5.419 2.082 5.602 8.176 0 0 .819 55.183 2.858 97.466.098 2.154 1.289 2.744 2.731 3.443 1.392.704 2.584 2.01 2.584 4.584m-34.277-46.146s-.123-22.229-.42-35.125h-.432l-12.628 32.11c-.823 2.12-1.836 4.3-1.836 5.453 0 1.145.713 1.442 1.701 1.442h11.191c2.157 0 2.467-.649 2.424-3.88"/><path d="m652.481 82.423c0 39.438-23.522 75.58-57.506 75.58-21.364 0-34.412-16.801-34.412-41.303 0-45.735 23.366-78.565 57.061-78.565 23.526 0 34.857 15.054 34.857 44.288m-28.45-16.763c0-13.761-3.257-16.928-9.995-16.928-19.061 0-25.308 62.366-25.308 80.003 0 15.27 3.834 18.493 9.83 18.493 16.347 0 25.473-57.914 25.473-81.568"/><path d="m470.955 152.235c0 3.151-2.858 4.618-6.874 4.618-4.007 0-8.176-.746-13.621-.746-6.738 0-10.606.746-15.05.746-4.724 0-6.887-1.726-6.887-4.618 0-2.714 1.442-4.72 4.881-5.865 2.578-.874 3.473-2.587 3.579-7.035l.28-13.035c.051-2.159-.568-2.443-1.853-2.443h-17.92c-2.154 0-2.667.751-3.295 2.15-2.451 5.458-5.886 13.193-5.886 17.772 0 1.306.589 3.002 2.587 3.872 1.874.848 3.142 2.303 3.142 4.584 0 2.595-1.573 4.618-6.022 4.618-2.714 0-5.292-.534-9.596-.534-4.016 0-5.733.534-7.883.534-3.872 0-5.742-1.582-5.742-4.474 0-2.129 1.306-3.969 3.163-4.584 4.304-1.395 6.221-6.272 7.171-8.46 20.13-46.549 32.114-76.398 32.114-76.398 1.234-2.939 3.002-7.446 3.002-8.888 0-2.727-.878-3.681-2.875-4.584-1.569-.717-2.43-1.429-2.43-4.012 0-3.299 2.303-4.733 8.748-4.733 13.477 0 17.204-2.154 23.51-2.154 4.152 0 5.411 2.082 5.589 8.176 0 0 .827 55.183 2.867 97.466.11 2.154 1.298 2.744 2.731 3.443 1.387.704 2.57 2.01 2.57 4.584m-34.259-46.146s-.14-22.229-.424-35.125h-.433l-12.62 32.11c-.827 2.12-1.862 4.3-1.862 5.453 0 1.145.717 1.442 1.726 1.442h11.187c2.15 0 2.476-.649 2.426-3.88"/><path d="m296.918 152.235c0 3.151-2.871 4.618-6.878 4.618-4.02 0-8.184-.746-13.629-.746-6.734 0-10.61.746-15.046.746-4.733 0-6.882-1.726-6.882-4.618 0-2.714 1.429-4.72 4.868-5.865 2.578-.874 3.494-2.587 3.592-7.035l.284-13.035c.047-2.159-.581-2.443-1.862-2.443h-17.925c-2.154 0-2.663.751-3.299 2.15-2.438 5.458-5.873 13.193-5.873 17.772 0 1.306.577 3.002 2.582 3.872 1.87.848 3.147 2.303 3.147 4.584 0 2.595-1.578 4.618-6.017 4.618-2.727 0-5.309-.534-9.613-.534-4.012 0-5.733.534-7.875.534-3.876 0-5.742-1.582-5.742-4.474 0-2.129 1.306-3.969 3.155-4.584 4.304-1.395 6.225-6.272 7.167-8.46 20.134-46.549 32.118-76.398 32.118-76.398 1.242-2.939 3.011-7.446 3.011-8.888 0-2.727-.882-3.681-2.862-4.584-1.59-.717-2.443-1.429-2.443-4.012 0-3.299 2.294-4.733 8.74-4.733 13.481 0 17.217-2.154 23.518-2.154 4.156 0 5.407 2.082 5.589 8.176 0 0 .823 55.183 2.871 97.466.098 2.154 1.289 2.744 2.727 3.443 1.385.704 2.577 2.01 2.577 4.584m-34.272-46.146s-.136-22.229-.424-35.125h-.424l-12.624 32.11c-.827 2.12-1.862 4.3-1.862 5.453 0 1.145.717 1.442 1.726 1.442h11.178c2.15 0 2.472-.645 2.43-3.88"/></g></svg>