<svg enable-background="new 0 1042.8 612 81.1" preserveAspectRatio="xMinYMid" viewBox="0 1042.8 612 81.1" xmlns="http://www.w3.org/2000/svg"><path d="m0 1042.8h612v81.1h-612z" fill="#da2128"/><g fill="#fff"><path d="m381.9 1061.1c0 1.6-1.2 8.3-2.4 12.3-.5 1.6-1.2 2.3-2.5 2.3-1.4 0-1.8-.9-1.8-3.4-.1-5.1-.3-8.1-3.8-8.1-.7 0-1.1.3-1.2 1-1.1 6.2-2.6 15.7-5.3 34.6-.1.4-.1 1-.1 1.3 0 1.9.1 2.4 1.2 3.1.8.4 1.1 1 1.1 1.8 0 1.4-1.5 1.9-2.7 1.9-1.6 0-3.2-.3-6.6-.3-3.2 0-4.7.3-6.5.3-2.2 0-2.7-.8-2.7-1.9 0-.9.5-1.5 1.2-1.8 1.3-.5 2.1-.8 2.5-3.5 2.3-12.3 4.7-32.3 5-34.1.2-1.4 0-2.2-.8-2.2-4.5 0-4.9 3.6-6.2 7.9-.8 2.9-1.9 3.5-3.1 3.5-1.6 0-1.8-.9-1.8-2.6 0-1.4 1.7-10.5 2.1-12.1.3-1.4.6-2.2 2.9-2.2 1.8 0 2.2.6 3.9.6h21c1.7 0 2.8-.6 4.2-.6 2-.2 2.4.9 2.4 2.2"/><path d="m315.7 1061.2c0 1.1-.6 1.6-1.8 2-.7.3-1.5.5-1.8 2.5-3 16.6-5.2 34.8-5.2 36 0 1.3.3 1.8 1.4 2.3.6.3 1 .8 1 1.7 0 1.2-1 1.9-2.9 1.9-1.5 0-3.3-.3-6.2-.3-3.2 0-5.1.3-6.7.3-2.5 0-2.8-1-2.8-1.9s.5-1.6 1.7-2.1c.9-.4 1.6-.8 2.1-3.3.8-3.8 2.7-16.5 3.9-25.5h-.1c-8.1 17.9-10.4 24.2-10.4 24.2-.3.6-.7 1.4-1.5 1.4h-2.4c-.5 0-.9-.3-1-1.3l-4-24h-.2c-2.2 16.2-2.7 20.5-2.7 20.5-.3 1.8-.5 5.8-.5 6 0 1.6.5 1.9 1.2 2.2.6.3 1.3.7 1.3 1.9s-1 1.9-2.5 1.9c-.8 0-1.9-.2-3.6-.2-1.9 0-2.5.2-3.5.2-1.9 0-2.6-.7-2.6-1.8 0-1.4.9-1.9 1.8-2.1 1.3-.4 1.8-1.7 2.3-3.7 1.6-7.9 4.6-32.9 4.8-34.4.3-1.9-.2-2.3-1.4-2.8-1.1-.5-1.6-1.2-1.6-1.9 0-1.1.9-1.8 2.5-1.8s3.3.3 6.2.3c2.1 0 3.4-.3 4.5-.3 2.1 0 3 .6 3.2 2.6l2.7 17.7h.1c4.4-9.4 7.6-17.5 7.6-17.5.8-1.8 1.4-2.8 3.8-2.8 1.2 0 3.1.3 5.7.3 2.4 0 3.9-.3 4.9-.3 2 .1 2.7.8 2.7 2.1"/><path d="m236.9 1061.1c0 1.2-.6 1.7-1.9 2.3-1.2.5-1.4 1-1.8 3.8-1.9 11-5.8 38.1-5.8 38.1-.3 2.3-.8 2.6-2.3 2.6h-2.5c-.8 0-1.6-.5-2.3-2.5l-10.7-29.9h-.3c-1.7 11.8-2.6 19-2.6 19-.3 2.4-.6 6.8-.6 7.2 0 1.4.5 1.9 1.2 2.3s1.4.6 1.4 1.9c0 1.4-1.1 1.9-2.7 1.9-.9 0-1.9-.2-3.6-.2-2.1 0-3 .2-3.9.2-1.6 0-2.4-.6-2.4-1.9 0-1 .5-1.7 1.8-2.1 1.1-.4 1.6-1.2 2-3.2 1.2-5.2 4.2-26.7 4.9-33 .1-1 .2-2.3.2-2.9 0-.8-.4-1.2-1-1.5-1.6-.6-1.9-1.3-1.9-2.2 0-1.2 1-1.8 2.2-1.8 1.5 0 3.4.3 5.3.3 1.8 0 3.1-.3 4.7-.3 1.3 0 1.8.4 2.5 2.4l7.9 22.3h.2c.4-2.3 1.5-10.4 1.5-10.4.3-2.4.6-6.7.6-7.9 0-1.6-.5-2.1-1-2.4-.8-.3-1.6-.8-1.6-1.9 0-1.3 1-2.1 2.8-2.1.8 0 2.7.3 3.8.3 1.2 0 2.8-.3 3.5-.3 1.5 0 2.4.5 2.4 1.9"/><path d="m166.2 1062.9c-.1 1.6-1 5.8-2 9-.3 1.1-1 1.7-2.1 1.7-1.2 0-2.1-.8-2-2.2.1-1.1.2-2.3.2-4.2 0-1.8-2.1-4-5.8-4-3.4 0-5.8 1.8-5.8 4.8 0 2.6 1.1 4 2.7 5.8 2.3 2.7 3.6 4 6.4 7.2 2.7 3 5.3 7 5.3 13.1 0 7.6-6.5 14.1-16.9 14.1-5.7 0-9.6-2-11.6-3-.8-.4-1.4-1-1.2-2.3.1-1 1.3-5.9 2.5-9.6.5-1.6 1.1-2.5 2.6-2.5 1 0 1.7.6 1.7 2.1 0 .9-.1 2.1-.3 3.8-.1 1.8-.4 6.2 6.8 6.2 3.2 0 5.5-2.1 5.5-4.9 0-2.1-.4-4.3-3-7.1-1.8-1.9-3.2-3.4-5.2-5.7-4-4.5-5.6-7.7-5.6-12.7 0-9.1 7.2-14.1 16.2-14.1 4.7 0 7.5 1 9.4 1.8 1.7.7 2.3 1.4 2.2 2.7"/><path d="m136.2 1072.4c0 1.5-.3 3.5-.8 5-.7 2.3-1.6 3.1-3.1 3.1-1 0-1.9-.1-2.5-.1-1.6 0-2.3.6-3.2 1.4-1 1-1.5 1.1-2.2 1.1-.8 0-1-.5-1-1.8 0-.9.2-2.3.5-4 .5-2.3 1.4-4.4 2.8-4.4.8 0 1.3.3 2.8.3 2.2 0 3.1-.5 3.6-1.1.8-.8 1.1-1.1 1.9-1.1.8-.4 1.2.4 1.2 1.6"/><path d="m135.6 1084.9c0 1.5-.3 3.5-.8 5-.7 2.3-1.6 3.1-3.1 3.1-1 0-1.9-.1-2.5-.1-1.6 0-2.3.6-3.1 1.4-1 1-1.5 1.2-2.2 1.2-.8 0-1-.5-1-1.8 0-.9.2-2.3.5-4 .5-2.3 1.4-4.5 2.8-4.5.8 0 1.3.3 2.8.3 2.2 0 3-.5 3.6-1.1.8-.8 1.1-1.1 1.9-1.1.8-.4 1.1.5 1.1 1.6"/><path d="m100.4 1061.1c0 1.6-1.2 8.3-2.4 12.3-.5 1.6-1.2 2.3-2.5 2.3-1.4 0-1.8-.9-1.8-3.4-.1-5.1-.3-8.1-3.8-8.1-.7 0-1.1.3-1.2 1-1.1 6.2-2.6 15.7-5.3 34.6-.1.4-.1 1-.1 1.3 0 1.9.1 2.4 1.2 3.1.8.4 1.1 1 1.1 1.8 0 1.4-1.5 1.9-2.7 1.9-1.6 0-3.2-.3-6.6-.3-3.2 0-4.7.3-6.5.3-2.2 0-2.7-.8-2.7-1.9 0-.9.5-1.5 1.2-1.8 1.3-.5 2.1-.8 2.5-3.5 2.3-12.3 4.7-32.3 5-34.1.2-1.4 0-2.2-.8-2.2-4.5 0-4.9 3.6-6.2 7.9-.8 2.9-1.9 3.5-3.1 3.5-1.6 0-1.8-.9-1.8-2.6 0-1.4 1.8-10.5 2.1-12.1.3-1.4.9-2.2 3.1-2.2 1.7 0 1.7.6 3.7.6h21c1.8 0 2.8-.6 4.2-.6 2.1-.2 2.4.9 2.4 2.2"/><path d="m67.5 1093.9c0 1.6-1.5 8.2-2.8 12-.6 1.8-1.3 2.2-3.9 2.2-1.9 0-7-.7-14.2-.7-4.2 0-7 .3-7.5.3-2.2 0-2.7-.6-2.7-1.9 0-.9.5-1.5 1.2-1.8 1.3-.5 2-.8 2.5-3.5 2.3-11.5 4.8-31.9 5-33.7.3-2.7-.1-3.1-1-3.6-.8-.4-1.2-.9-1.2-1.8 0-1.2.7-2.1 3.5-2.1 1.6 0 3.9.3 5.8.3 2.9 0 3.9-.3 5.4-.3 3.1 0 3.6.7 3.6 1.9 0 1-.6 1.7-1.6 2.1-1 .3-1.5.7-1.8 2.4-1.2 5.5-2.8 15.3-5.3 34.1-.1.5-.1 1-.1 1.3 0 1.1.5 1.8 1.9 1.8 5.1 0 7.8-4.5 9.1-9.4.3-1.2 1-1.9 2.3-1.9 1 0 1.8.3 1.8 2.3"/><path d="m40.7 1061.1c0 1.1-.5 1.7-1.6 2.1-1 .4-1.5.7-1.8 2.4-1.2 5.5-2.8 15.3-5.3 34.1-.1.5-.1 1.1-.1 1.4 0 1.9 0 2.3 1.2 2.9.8.4 1.1 1 1.1 1.8 0 1.3-1 1.9-2.6 1.9-1.7 0-4.5-.3-7.2-.3-2.3 0-4.2.3-5.9.3-2.2 0-2.7-.6-2.7-1.9 0-.9.5-1.5 1.2-1.8 1.2-.6 2-.8 2.5-3.5 2.3-11.5 4.8-31.9 5-33.7.3-2.7-.1-3.1-1-3.6-.8-.4-1.2-1-1.2-1.9 0-1.2.9-2 3.5-2 1.4 0 3.2.3 5.9.3s4-.3 5.3-.3c3.3-.1 3.7.6 3.7 1.8"/><path d="m345.8 1105.8c0 1.3-1.2 1.9-2.9 1.9s-3.4-.3-5.7-.3c-2.8 0-4.4.3-6.2.3-1.9 0-2.9-.7-2.9-1.9 0-1.1.6-1.9 2-2.4 1-.4 1.4-1 1.5-2.9l.1-5.4c0-.9-.3-1-.8-1h-7.4c-.9 0-1.1.3-1.4.9-1 2.3-2.4 5.5-2.4 7.3 0 .5.3 1.2 1.1 1.6.8.3 1.3 1 1.3 1.9 0 1.1-.6 1.9-2.5 1.9-1.1 0-2.2-.2-4-.2-1.7 0-2.4.2-3.2.2-1.6 0-2.4-.6-2.4-1.9 0-.9.5-1.6 1.3-1.9 1.8-.6 2.6-2.6 3-3.5 8.3-19.3 13.3-31.6 13.3-31.6.5-1.2 1.2-3.1 1.2-3.7 0-1.1-.4-1.5-1.2-1.9-.6-.3-1-.6-1-1.7 0-1.4 1-1.9 3.6-1.9 5.6 0 7.1-.9 9.7-.9 1.8 0 2.3.8 2.3 3.4 0 0 .3 22.9 1.2 40.3.1.9.5 1.1 1.1 1.4.7.4 1.3 1 1.3 2m-14.2-19.1s-.1-9.2-.2-14.6h-.2l-5.3 13.3c-.3.9-.8 1.8-.8 2.3s.3.6.7.6h4.6c1.1.1 1.2-.4 1.2-1.6"/><path d="m270.3 1076.9c0 16.3-9.7 31.3-23.8 31.3-8.8 0-14.2-7-14.2-17.1 0-19 9.7-32.5 23.6-32.5 9.6 0 14.4 6.3 14.4 18.3m-11.9-7c0-5.7-1.4-7-4.2-7-7.9 0-10.5 25.9-10.5 33.1 0 6.3 1.6 7.7 4.1 7.7 6.9.1 10.6-23.9 10.6-33.8"/><path d="m195 1105.8c0 1.3-1.2 1.9-2.9 1.9s-3.4-.3-5.7-.3c-2.8 0-4.4.3-6.2.3-1.9 0-2.9-.7-2.9-1.9 0-1.1.6-1.9 2-2.4 1-.4 1.4-1 1.5-2.9l.1-5.4c0-.9-.3-1-.8-1h-7.4c-.9 0-1.1.3-1.4.9-1 2.3-2.5 5.5-2.5 7.3 0 .5.3 1.2 1 1.6.8.3 1.3 1 1.3 1.9 0 1.1-.6 1.9-2.5 1.9-1.1 0-2.2-.2-4-.2-1.7 0-2.4.2-3.2.2-1.6 0-2.4-.6-2.4-1.9 0-.9.5-1.6 1.3-1.9 1.8-.6 2.6-2.6 3-3.5 8.3-19.3 13.3-31.6 13.3-31.6.5-1.2 1.2-3.1 1.2-3.7 0-1.1-.4-1.5-1.2-1.9-.6-.3-1-.6-1-1.7 0-1.4 1-1.9 3.6-1.9 5.6 0 7.1-.9 9.7-.9 1.7 0 2.2.8 2.3 3.4 0 0 .3 22.9 1.2 40.3.1.9.5 1.1 1.1 1.4 1.1.4 1.5 1 1.5 2m-14.1-19.1s-.1-9.2-.2-14.6h-.2l-5.2 13.3c-.3.9-.8 1.8-.8 2.3s.3.6.7.6h4.6c.9.1 1.1-.4 1.1-1.6"/><path d="m123 1105.8c0 1.3-1.2 1.9-2.9 1.9s-3.4-.3-5.7-.3c-2.8 0-4.4.3-6.2.3-1.9 0-2.9-.7-2.9-1.9 0-1.1.6-1.9 2-2.4 1-.4 1.4-1 1.5-2.9l.1-5.4c0-.9-.3-1-.8-1h-7.4c-.9 0-1.1.3-1.4.9-1 2.3-2.4 5.5-2.4 7.3 0 .5.3 1.2 1 1.6.8.3 1.3 1 1.3 1.9 0 1.1-.6 1.9-2.5 1.9-1.1 0-2.2-.2-4-.2-1.7 0-2.4.2-3.2.2-1.6 0-2.4-.6-2.4-1.9 0-.9.5-1.6 1.3-1.9 1.8-.6 2.6-2.6 3-3.5 8.3-19.3 13.3-31.6 13.3-31.6.5-1.2 1.2-3.1 1.2-3.7 0-1.1-.4-1.5-1.2-1.9-.6-.3-1-.6-1-1.7 0-1.4 1-1.9 3.6-1.9 5.6 0 7.1-.9 9.7-.9 1.7 0 2.2.8 2.3 3.4 0 0 .3 22.9 1.2 40.3.1.9.5 1.1 1.1 1.4.9.4 1.4 1 1.4 2m-14.2-19.1s-.1-9.2-.2-14.6h-.2l-5.2 13.3c-.3.9-.8 1.8-.8 2.3s.3.6.7.6h4.6c1 .1 1.1-.2 1.1-1.6"/></g><g fill="#fffdfd"><g enable-background="new"><path d="m415.8 1074.3c.5.7 1.1 1.3 1.8 1.7s1.5.6 2.3.6c.9 0 1.7-.2 2.2-.7s.9-1.1.9-1.9c0-.6-.2-1-.6-1.4s-.9-.7-1.5-1.1l-1.8-1.1c-.8-.5-1.4-1-1.9-1.7s-.7-1.5-.7-2.5c0-.7.1-1.3.4-2 .3-.6.7-1.2 1.2-1.6.5-.5 1.1-.8 1.8-1.1s1.5-.4 2.3-.4c1 0 2 .2 2.9.7s1.6 1.1 2.2 1.9l-1.8 1.7c-.4-.5-.9-.9-1.5-1.3-.6-.3-1.2-.5-1.9-.5-.9 0-1.5.2-2 .7s-.7 1-.7 1.6.2 1 .6 1.4c.4.3.9.7 1.6 1.1l1.9 1.1c.9.5 1.5 1.1 1.9 1.7s.6 1.4.6 2.5c0 .8-.2 1.5-.5 2.2s-.7 1.2-1.3 1.7-1.2.9-2 1.2-1.6.4-2.6.4c-1.2 0-2.3-.2-3.3-.7s-1.9-1.3-2.7-2.4z"/><path d="m438.4 1078.8h-2.3l.1-1.9h-.1c-.7.6-1.3 1.1-2.1 1.5-.7.4-1.5.7-2.3.7-1.1 0-1.9-.3-2.4-.9s-.7-1.4-.7-2.4c0-.3 0-.6.1-.9 0-.3.1-.6.2-.9l1.7-8.3h2.9l-1.6 7.9c-.1.3-.1.6-.2.8 0 .2-.1.4-.1.6 0 1.1.5 1.7 1.6 1.7.9 0 1.9-.7 3.2-2l1.8-8.9h2.8z"/><path d="m447.4 1079.1c-.7 0-1.4-.1-2-.4-.6-.2-1.1-.6-1.5-1.1s-.8-1-1-1.7-.3-1.4-.3-2.2c0-1.2.2-2.4.6-3.4s1-1.9 1.6-2.7c.7-.7 1.4-1.3 2.3-1.7s1.7-.6 2.6-.6c1.5 0 2.7.5 3.6 1.4.9 1 1.3 2.3 1.3 3.9 0 1.2-.2 2.4-.6 3.4s-1 1.9-1.6 2.7c-.7.7-1.4 1.3-2.3 1.7s-1.8.7-2.7.7zm2-11.4c-.5 0-1 .2-1.5.5s-.9.7-1.3 1.3c-.4.5-.7 1.2-.9 1.9s-.3 1.5-.3 2.3c0 1 .2 1.8.6 2.3s1 .8 1.7.8c.5 0 1-.2 1.5-.5s.9-.7 1.3-1.3.7-1.2.9-1.9.3-1.5.3-2.3c0-1-.2-1.8-.6-2.3s-.9-.8-1.7-.8z"/><path d="m458.8 1065.7h2.3l-.1 1.8h.1c.7-.6 1.4-1.1 2.1-1.5s1.4-.6 2.2-.6c.5 0 .9.1 1.3.2s.7.3.9.5.4.5.6.8c.1.3.2.6.3 1 .8-.7 1.6-1.3 2.3-1.8.8-.4 1.5-.7 2.2-.7 1.1 0 1.9.3 2.4.9s.7 1.4.7 2.5c0 .3 0 .6-.1.9 0 .3-.1.6-.2 1l-1.7 8.3h-2.9l1.6-7.9c.1-.3.1-.6.2-.8 0-.2.1-.4.1-.6 0-1.1-.5-1.7-1.6-1.7-.3 0-.8.2-1.3.5s-1.1.8-1.8 1.5l-1.8 8.9h-2.9l1.6-7.9c.1-.3.1-.6.2-.8 0-.2.1-.4.1-.6 0-1.1-.5-1.7-1.6-1.7-.4 0-.8.2-1.3.5s-1.1.8-1.8 1.5l-1.8 8.9h-2.9z"/><path d="m478.1 1073.6c0-1.2.2-2.3.6-3.3s1-1.9 1.7-2.6 1.5-1.3 2.3-1.7 1.7-.6 2.6-.6c.8 0 1.4.1 1.9.4.5.2.9.6 1.3 1 .3.4.6.9.7 1.5.2.6.2 1.2.2 1.9 0 .6-.1 1.1-.2 1.7-.1.5-.3.9-.3 1.1h-8c-.1.7 0 1.3.1 1.8s.4.9.7 1.2.7.6 1.1.7c.4.2.9.2 1.4.2s.9-.1 1.4-.3.9-.5 1.3-.7l1.1 1.8c-.5.4-1.2.7-1.9 1-.8.3-1.6.4-2.5.4-.8 0-1.5-.1-2.1-.4-.6-.2-1.2-.6-1.7-1.1s-.8-1-1.1-1.7c-.5-.7-.6-1.4-.6-2.3zm8.8-2.4c0-.2.1-.4.1-.5s0-.4 0-.6c0-.6-.2-1.2-.5-1.7s-.9-.7-1.7-.7-1.5.3-2.3.9c-.7.6-1.2 1.5-1.5 2.6z"/><path d="m493.4 1065.7h2.3l-.1 1.8h.1c.7-.6 1.4-1.1 2.1-1.5s1.5-.6 2.4-.6c1.1 0 1.9.3 2.4.9s.7 1.4.7 2.5v.9c0 .3-.1.6-.2 1l-1.7 8.3h-2.9l1.6-7.9c.1-.3.1-.6.1-.8s.1-.4.1-.6c0-1.1-.6-1.7-1.7-1.7-.5 0-1 .2-1.5.5s-1.1.8-1.8 1.5l-1.8 8.9h-2.9z"/><path d="m511.3 1075.2c.4.6.9 1 1.4 1.3s1.1.5 1.7.5 1.2-.2 1.6-.5c.5-.3.7-.7.7-1.2 0-.4-.2-.8-.6-1.1s-1-.7-1.8-1.1c-.9-.5-1.6-1-2.1-1.6s-.7-1.3-.7-2.1c0-.6.1-1.1.4-1.6s.6-.9 1-1.3.9-.6 1.5-.8 1.2-.3 1.9-.3c.9 0 1.6.2 2.3.5s1.3.8 1.8 1.3l-1.6 1.5c-.3-.3-.7-.6-1.1-.9-.4-.2-.9-.4-1.4-.4-.6 0-1.1.2-1.5.5s-.6.7-.6 1.2c0 .2.1.5.2.6.1.2.3.3.5.5s.5.3.7.5c.3.1.5.3.8.5 1 .5 1.7 1.1 2.2 1.6s.7 1.3.7 2.1c0 .6-.1 1.2-.4 1.7s-.6 1-1.1 1.3c-.5.4-1 .6-1.7.8-.6.2-1.3.3-2.1.3-.4 0-.8-.1-1.3-.2-.4-.1-.9-.3-1.3-.5s-.8-.5-1.1-.8c-.4-.3-.7-.7-.9-1z"/><path d="m531.8 1078.8h-2.3l.1-1.9h-.1c-.7.6-1.3 1.1-2.1 1.5-.7.4-1.5.7-2.3.7-1.1 0-1.9-.3-2.4-.9s-.7-1.4-.7-2.4c0-.3 0-.6.1-.9 0-.3.1-.6.2-.9l1.7-8.3h2.9l-1.6 7.9c-.1.3-.1.6-.2.8 0 .2-.1.4-.1.6 0 1.1.5 1.7 1.6 1.7.9 0 1.9-.7 3.2-2l1.8-8.9h2.8z"/><path d="m546.1 1078.8h-2.3l.1-1.9h-.1c-.7.6-1.3 1.1-2.1 1.5-.7.4-1.5.7-2.3.7-1.1 0-1.9-.3-2.4-.9s-.7-1.4-.7-2.4c0-.3 0-.6.1-.9 0-.3.1-.6.2-.9l1.7-8.3h2.9l-1.6 7.9c-.1.3-.1.6-.2.8 0 .2-.1.4-.1.6 0 1.1.5 1.7 1.6 1.7.9 0 1.9-.7 3.2-2l1.8-8.9h2.8z"/><path d="m552.6 1065.7h2.3l-.2 2.5h.1c.5-.8 1.1-1.5 1.8-2s1.4-.8 2.2-.8c.5 0 .9.1 1.3.2l-1 2.5c-.2-.1-.3-.1-.6-.2-.2 0-.4 0-.7 0-.6 0-1.2.2-1.8.7s-1.2 1.2-1.7 2.2l-1.5 7.9h-2.8z"/><path d="m562.3 1065.7h2.9l-2.6 13.1h-2.9zm2.1-2.3c-.4 0-.8-.1-1.1-.4s-.5-.6-.5-1.1.2-1 .6-1.3.8-.5 1.4-.5c.4 0 .8.1 1.1.4s.5.6.5 1.1-.2 1-.6 1.3-.9.5-1.4.5z"/><path d="m568.9 1065.7h2.3l-.1 1.8h.1c.7-.6 1.4-1.1 2.1-1.5s1.5-.6 2.4-.6c1.1 0 1.9.3 2.4.9s.7 1.4.7 2.5v.9c0 .3-.1.6-.2 1l-1.7 8.3h-2.9l1.6-7.9c.1-.3.1-.6.1-.8s.1-.4.1-.6c0-1.1-.6-1.7-1.7-1.7-.5 0-1 .2-1.5.5s-1.1.8-1.8 1.5l-1.8 8.9h-2.9z"/></g><g enable-background="new"><path d="m424.6 1107.4h-2.3l.1-1.9h-.1c-.7.6-1.3 1.1-2.1 1.5-.7.4-1.5.7-2.3.7-1.1 0-1.9-.3-2.4-.9s-.7-1.4-.7-2.4c0-.3 0-.6.1-.9 0-.3.1-.6.2-.9l1.7-8.3h2.9l-1.6 7.9c-.1.3-.1.6-.2.8 0 .2-.1.4-.1.6 0 1.1.5 1.7 1.6 1.7.9 0 1.9-.7 3.2-2l1.8-8.9h2.8z"/><path d="m438.9 1107.4h-2.3l.1-1.9h-.1c-.7.6-1.3 1.1-2.1 1.5-.7.4-1.5.7-2.3.7-1.1 0-1.9-.3-2.4-.9s-.7-1.4-.7-2.4c0-.3 0-.6.1-.9 0-.3.1-.6.2-.9l1.7-8.3h2.9l-1.6 7.9c-.1.3-.1.6-.2.8 0 .2-.1.4-.1.6 0 1.1.5 1.7 1.6 1.7.9 0 1.9-.7 3.2-2l1.8-8.9h2.8z"/><path d="m445.4 1096.6h-1.8l.4-2.1 2-.1 1-3.5h2.4l-.7 3.5h3.1l-.5 2.3h-3.2l-1.3 6.5c-.1.3-.1.6-.1.9 0 .5.1.8.3 1.1.2.2.6.4 1.2.4.2 0 .4 0 .6-.1s.4-.2.6-.2l.5 2c-.3.1-.7.3-1.2.4s-1 .2-1.6.2c-1.2 0-2.1-.3-2.6-.9s-.8-1.4-.8-2.3c0-.3 0-.5.1-.8 0-.2.1-.5.1-.8z"/><path d="m454.6 1094.3h2.8l-2.6 13.1h-2.9zm2.1-2.3c-.4 0-.8-.1-1.1-.4s-.5-.6-.5-1.1.2-1 .6-1.3c.4-.4.8-.5 1.4-.5.4 0 .8.1 1.1.4s.5.6.5 1.1-.2 1-.6 1.3-.9.5-1.4.5z"/><path d="m459.6 1103.8c.4.6.9 1 1.4 1.3s1.1.5 1.7.5 1.2-.2 1.6-.5c.5-.3.7-.7.7-1.2 0-.4-.2-.8-.6-1.1s-1-.7-1.8-1.1c-.9-.5-1.6-1-2.1-1.6s-.7-1.3-.7-2.1c0-.6.1-1.1.4-1.6.2-.5.6-.9 1-1.3s.9-.6 1.5-.8 1.2-.3 1.9-.3c.9 0 1.6.2 2.3.5.7.4 1.3.8 1.8 1.3l-1.6 1.5c-.3-.3-.7-.6-1.1-.9-.4-.2-.9-.4-1.4-.4-.6 0-1.1.2-1.5.5s-.6.7-.6 1.2c0 .2.1.5.2.6.1.2.3.3.5.5s.5.3.7.5c.3.1.5.3.8.5 1 .5 1.7 1.1 2.2 1.6.5.6.7 1.3.7 2.1 0 .6-.1 1.2-.4 1.7s-.6 1-1.1 1.3c-.5.4-1 .6-1.7.8-.6.2-1.3.3-2.1.3-.4 0-.8-.1-1.3-.2-.4-.1-.9-.3-1.3-.5s-.8-.5-1.1-.8c-.4-.3-.7-.7-.9-1z"/><path d="m472.2 1094.3h2.3l-.1 1.8h.1c.7-.6 1.4-1.1 2.1-1.5s1.4-.6 2.2-.6c.5 0 .9.1 1.3.2s.7.3.9.5.4.5.6.8c.1.3.2.6.3 1 .8-.7 1.6-1.3 2.3-1.8.8-.4 1.5-.7 2.2-.7 1.1 0 1.9.3 2.4.9s.7 1.4.7 2.5c0 .3 0 .6-.1.9 0 .3-.1.6-.2 1l-1.7 8.3h-2.9l1.6-7.9c.1-.3.1-.6.2-.8 0-.2.1-.4.1-.6 0-1.1-.5-1.7-1.6-1.7-.3 0-.8.2-1.3.5s-1.1.8-1.8 1.5l-1.8 8.9h-2.9l1.6-7.9c.1-.3.1-.6.2-.8 0-.2.1-.4.1-.6 0-1.1-.5-1.7-1.6-1.7-.4 0-.8.2-1.3.5s-1.1.8-1.8 1.5l-1.8 8.9h-2.9z"/><path d="m491.6 1102.2c0-1.2.2-2.3.6-3.3s1-1.9 1.7-2.6 1.5-1.3 2.3-1.7 1.7-.6 2.6-.6c.8 0 1.4.1 1.9.4.5.2.9.6 1.3 1 .3.4.6.9.7 1.5.2.6.2 1.2.2 1.9 0 .6-.1 1.1-.2 1.7-.1.5-.3.9-.3 1.1h-8c-.1.7 0 1.3.1 1.8s.4.9.7 1.2.7.6 1.1.7c.4.2.9.2 1.4.2s.9-.1 1.4-.3.9-.5 1.3-.7l1.1 1.8c-.5.4-1.2.7-1.9 1-.8.3-1.6.4-2.5.4-.8 0-1.5-.1-2.1-.4-.6-.2-1.2-.6-1.7-1.1s-.8-1-1.1-1.7c-.5-.7-.6-1.5-.6-2.3zm8.8-2.4c0-.2.1-.4.1-.5s0-.4 0-.6c0-.6-.2-1.2-.5-1.7s-.9-.7-1.7-.7-1.5.3-2.3.9c-.7.6-1.2 1.5-1.5 2.6z"/><path d="m515 1093.2.9-4.6h2.9l-3.8 18.8h-2.3l.1-1.8h-.1c-.6.6-1.3 1.2-2.1 1.5s-1.5.6-2.3.6c-1.2 0-2.1-.4-2.7-1.2-.7-.8-1-2-1-3.5 0-1.2.2-2.4.6-3.5s.9-2 1.6-2.8 1.4-1.4 2.3-1.9c.8-.5 1.7-.7 2.6-.7.6 0 1.2.2 1.7.5s.9.7 1.2 1.3h.1zm-5.5 12.2c.6 0 1.1-.2 1.7-.5s1.2-.9 1.7-1.7l1.1-5.2c-.3-.6-.6-1-1-1.2s-.8-.4-1.2-.4c-.6 0-1.1.2-1.6.5s-1 .8-1.4 1.3c-.4.6-.7 1.2-.9 2s-.3 1.5-.3 2.4c0 1 .2 1.7.5 2.1s.8.7 1.4.7z"/><path d="m521.3 1094.3h2.9l-2.6 13.1h-2.9zm2.1-2.3c-.4 0-.8-.1-1.1-.4s-.5-.6-.5-1.1.2-1 .6-1.3.8-.5 1.4-.5c.4 0 .8.1 1.1.4s.5.6.5 1.1-.2 1-.6 1.3-.9.5-1.4.5z"/><path d="m525.7 1102.9c0-1.2.2-2.4.6-3.5s.9-2 1.6-2.8 1.4-1.4 2.3-1.9c.8-.5 1.7-.7 2.6-.7.6 0 1.2.2 1.8.5.5.3.9.8 1.3 1.3h.1l.6-1.5h2.3l-2.6 13.1h-2.3l.1-1.8h-.1c-.6.6-1.3 1.2-2.1 1.5s-1.5.6-2.3.6c-1.2 0-2.1-.4-2.7-1.2-.9-.8-1.2-2-1.2-3.6zm4.9 2.5c.6 0 1.1-.2 1.7-.5s1.2-.9 1.7-1.7l1.1-5.2c-.3-.6-.6-1-1-1.2s-.8-.4-1.2-.4c-.6 0-1.1.2-1.6.5s-1 .8-1.4 1.3c-.4.6-.7 1.2-.9 2s-.3 1.5-.3 2.4c0 1 .2 1.7.5 2.1s.8.7 1.4.7z"/></g></g></svg>