<svg enable-background="new 0 673 612 124.9" preserveAspectRatio="xMinYMid" viewBox="0 673 612 124.9" xmlns="http://www.w3.org/2000/svg"><path d="m0 673h612v124.9h-612z" fill="#da2128"/><g transform="matrix(1.5568873 0 0 1.5568873 -13.086851 -412.96485)"><g fill="#fff"><path d="m355.2 701.7c0 1.4-1.1 7.5-2.2 11.1-.4 1.4-1.1 2-2.3 2s-1.6-.8-1.7-3.1c-.1-4.6-.2-7.3-3.4-7.3-.6 0-1 .3-1.1.9-1 5.6-2.4 14.2-4.8 31.3 0 .4-.1.9-.1 1.2 0 1.8 0 2.2 1.1 2.7.7.4 1 .9 1 1.7 0 1.3-1.3 1.7-2.4 1.7-1.4 0-2.9-.3-6-.3-3 0-4.3.3-5.9.3-2 0-2.5-.7-2.5-1.7 0-.9.4-1.4 1.1-1.7 1.2-.5 1.9-.8 2.3-3.2 2.1-11.2 4.3-29.2 4.5-30.9.2-1.2 0-2-.8-2-4.1 0-4.4 3.2-5.6 7.2-.7 2.7-1.8 3.2-2.7 3.2-1.4 0-1.7-.8-1.7-2.4 0-1.2 1.6-9.5 1.9-10.9.3-1.3.6-2 2.6-2 1.7 0 2 .5 3.6.5h19c1.6 0 2.5-.6 3.8-.6 2 0 2.3 1 2.3 2.3"/><path d="m295.4 701.8c0 1-.6 1.4-1.6 1.8-.7.3-1.3.5-1.7 2.3-2.7 15-4.7 31.4-4.7 32.5 0 1.2.3 1.7 1.2 2.1.6.3 1 .7 1 1.6 0 1.1-.9 1.7-2.6 1.7-1.4 0-3-.2-5.6-.2-2.9 0-4.6.2-6.1.2-2.3 0-2.5-.9-2.5-1.7s.4-1.4 1.6-1.9c.8-.4 1.4-.7 1.9-3 .7-3.4 2.5-14.9 3.5-23h-.1c-7.3 16.2-9.4 21.9-9.4 21.9-.2.5-.6 1.3-1.3 1.3h-2.3c-.5 0-.8-.3-1-1.2l-3.6-21.7h-.2c-2 14.6-2.5 18.5-2.5 18.5-.2 1.6-.4 5.2-.4 5.4 0 1.4.4 1.8 1 2s1.2.6 1.2 1.7-.9 1.7-2.3 1.7c-.7 0-1.8-.2-3.3-.2-1.8 0-2.3.2-3.2.2-1.7 0-2.4-.6-2.4-1.6 0-1.3.8-1.7 1.6-1.9 1.2-.4 1.7-1.6 2-3.3 1.5-7.1 4.2-29.8 4.3-31.1.2-1.7-.2-2.1-1.2-2.5s-1.4-1.1-1.4-1.8c0-1 .8-1.7 2.3-1.7s3 .3 5.6.3c1.9 0 3.1-.3 4.1-.3 1.9 0 2.7.5 3 2.4l2.5 16.1h.1c3.9-8.5 6.9-15.9 6.9-15.9.7-1.7 1.3-2.5 3.4-2.5 1.1 0 2.8.3 5.1.3 2.1 0 3.5-.3 4.5-.3 2-.1 2.6.5 2.6 1.8"/><path d="m224.1 701.7c0 1.1-.5 1.6-1.8 2-1.1.4-1.2 1-1.7 3.4-1.8 10-5.3 34.4-5.3 34.4-.3 2-.7 2.4-2 2.4h-2.3c-.8 0-1.5-.5-2.1-2.2l-9.6-27.1h-.3c-1.5 10.7-2.4 17.2-2.4 17.2-.3 2.2-.5 6.1-.5 6.5 0 1.3.5 1.7 1.1 2 .7.3 1.3.6 1.3 1.7 0 1.2-1 1.7-2.4 1.7-.8 0-1.8-.2-3.3-.2-1.9 0-2.7.2-3.5.2-1.5 0-2.1-.6-2.1-1.7 0-1 .5-1.6 1.6-1.9 1-.3 1.4-1.1 1.8-2.9 1.1-4.7 3.8-24.2 4.5-29.9.1-.9.2-2 .2-2.6 0-.8-.4-1.1-1-1.3-1.4-.5-1.7-1.2-1.7-2 0-1.1.9-1.6 2-1.6 1.3 0 3.1.3 4.8.3 1.6 0 2.7-.3 4.2-.3 1.2 0 1.6.3 2.3 2.2l7.1 20.1h.2c.3-2 1.3-9.4 1.3-9.4.3-2.2.6-6.1.6-7.1 0-1.4-.5-1.9-1-2.1-.7-.3-1.4-.7-1.4-1.7 0-1.2.9-1.9 2.5-1.9.8 0 2.4.3 3.4.3 1.1 0 2.5-.3 3.2-.3 1.5 0 2.3.4 2.3 1.8"/><path d="m160.1 703.3c-.1 1.5-1 5.2-1.8 8.2-.3 1-.9 1.5-1.9 1.5-1.1 0-1.9-.7-1.8-2 0-1 .2-2 .2-3.8 0-1.6-1.9-3.6-5.2-3.6-3.1 0-5.2 1.6-5.2 4.3 0 2.4 1 3.6 2.4 5.2 2.1 2.5 3.2 3.7 5.8 6.5 2.4 2.7 4.8 6.3 4.8 11.8 0 6.9-5.9 12.7-15.3 12.7-5.1 0-8.7-1.8-10.5-2.7-.8-.4-1.2-.9-1.1-2.1.1-.9 1.2-5.3 2.3-8.7.5-1.5 1-2.3 2.4-2.3 1 0 1.6.6 1.6 1.9 0 .8-.1 1.9-.2 3.5s-.4 5.6 6.1 5.6c3 0 5-1.9 5-4.5 0-1.9-.3-3.9-2.7-6.4-1.7-1.8-2.9-3.1-4.7-5.2-3.6-4-5-6.9-5-11.5 0-8.2 6.5-12.7 14.7-12.7 4.3 0 6.8 1 8.5 1.7 1.2.8 1.7 1.3 1.6 2.6"/><path d="m133 711.8c0 1.3-.3 3.2-.7 4.5-.7 2.1-1.5 2.7-2.7 2.7-.9 0-1.7-.1-2.3-.1-1.4 0-2.1.5-2.9 1.3-.9.9-1.3 1-2 1s-.9-.5-.9-1.7c0-.8.2-2 .5-3.7.4-2 1.2-4 2.5-4 .8 0 1.2.3 2.5.3 2 0 2.7-.4 3.3-1 .7-.8 1-1 1.8-1 .6.1.9.7.9 1.7"/><path d="m132.5 723c0 1.3-.3 3.2-.7 4.5-.7 2.1-1.5 2.7-2.7 2.7-.9 0-1.7-.1-2.3-.1-1.4 0-2.1.5-2.8 1.3-.9.9-1.3 1-2 1s-.9-.5-.9-1.7c0-.8.2-2 .5-3.6.4-2 1.2-4 2.5-4 .8 0 1.2.3 2.5.3 2 0 2.7-.4 3.3-1 .7-.8 1-1 1.8-1 .5 0 .8.8.8 1.6"/><path d="m100.7 701.7c0 1.4-1.1 7.5-2.1 11.1-.4 1.4-1.1 2-2.3 2s-1.6-.8-1.7-3.1c-.1-4.6-.2-7.3-3.4-7.3-.6 0-1 .3-1.1.9-1 5.6-2.4 14.2-4.8 31.3-.1.4-.1.9-.1 1.2 0 1.8 0 2.2 1.1 2.7.7.4 1 .9 1 1.7 0 1.3-1.3 1.7-2.4 1.7-1.4 0-2.9-.3-6-.3-3 0-4.2.3-5.9.3-2 0-2.5-.7-2.5-1.7 0-.9.4-1.4 1.1-1.7 1.2-.5 1.9-.8 2.3-3.2 2.1-11.2 4.3-29.2 4.5-30.9.2-1.2 0-2-.7-2-4.1 0-4.5 3.2-5.6 7.2-.8 2.7-1.8 3.2-2.7 3.2-1.4 0-1.7-.8-1.7-2.4 0-1.2 1.6-9.5 1.9-10.9.3-1.3.8-2 2.8-2 1.5 0 1.6.5 3.3.5h19c1.6 0 2.5-.6 3.8-.6 1.8 0 2.2 1 2.2 2.3"/><path d="m70.9 731.3c0 1.4-1.3 7.4-2.5 10.8-.6 1.6-1.2 2-3.5 2-1.7 0-6.3-.6-12.9-.6-3.8 0-6.3.3-6.8.3-2 0-2.5-.6-2.5-1.7 0-.9.4-1.4 1.1-1.7 1.2-.5 1.8-.8 2.3-3.2 2.1-10.4 4.4-28.8 4.5-30.5.2-2.5-.1-2.8-.9-3.2-.7-.4-1.1-.8-1.1-1.7 0-1.1.6-1.9 3.2-1.9 1.4 0 3.5.3 5.3.3 2.6 0 3.5-.3 4.9-.3 2.7 0 3.3.6 3.3 1.7 0 .9-.5 1.6-1.5 1.9-.9.3-1.3.6-1.7 2.1-1.1 5-2.5 13.8-4.8 30.9 0 .4-.1.9-.1 1.2 0 1 .5 1.6 1.8 1.6 4.6 0 7-4.1 8.2-8.4.3-1.1 1-1.7 2-1.7.9 0 1.7.3 1.7 2.1"/><path d="m46.6 701.7c0 1-.5 1.5-1.5 1.9-.9.3-1.3.6-1.7 2.1-1.1 5-2.5 13.8-4.8 30.9 0 .4-.1 1-.1 1.3 0 1.8 0 2.1 1.1 2.6.8.4 1 .9 1 1.7 0 1.2-1 1.7-2.4 1.7-1.6 0-4.1-.3-6.5-.3-2.1 0-3.8.3-5.4.3-2 0-2.5-.6-2.5-1.7 0-.9.4-1.3 1.1-1.7 1.1-.5 1.8-.8 2.3-3.2 2-10.4 4.4-28.8 4.5-30.5.2-2.5-.1-2.8-.9-3.2-.7-.4-1.1-.9-1.1-1.8 0-1.1.8-1.8 3.2-1.8 1.3 0 3 .3 5.4.3s3.7-.3 4.8-.3c3.1-.1 3.5.5 3.5 1.7"/><path d="m322.6 742.2c0 1.2-1.1 1.7-2.6 1.7s-3.1-.3-5.1-.3c-2.5 0-4 .3-5.6.3-1.8 0-2.6-.6-2.6-1.7 0-1 .5-1.8 1.8-2.2 1-.3 1.3-1 1.3-2.6l.1-4.9c0-.8-.2-.9-.7-.9h-6.7c-.8 0-1 .3-1.2.8-.9 2-2.2 4.9-2.2 6.7 0 .5.2 1.1 1 1.5.7.3 1.2.9 1.2 1.7 0 1-.6 1.7-2.3 1.7-1 0-2-.2-3.6-.2-1.5 0-2.1.2-3 .2-1.4 0-2.1-.6-2.1-1.7 0-.8.5-1.5 1.2-1.7 1.6-.5 2.3-2.4 2.7-3.2 7.5-17.4 12-28.6 12-28.6.5-1.1 1.1-2.8 1.1-3.3 0-1-.3-1.4-1.1-1.7-.6-.3-.9-.5-.9-1.5 0-1.2.9-1.8 3.3-1.8 5.1 0 6.5-.8 8.8-.8 1.6 0 2 .8 2.1 3.1 0 0 .3 20.7 1.1 36.5 0 .8.5 1 1 1.3.5.1 1 .6 1 1.6m-12.9-17.4s0-8.3-.2-13.2h-.2l-4.7 12c-.3.8-.7 1.6-.7 2s.3.5.6.5h4.2c.9.1 1.1-.1 1-1.3"/><path d="m254.3 715.9c0 14.8-8.8 28.3-21.5 28.3-8 0-12.9-6.3-12.9-15.5 0-17.1 8.8-29.4 21.4-29.4 8.7 0 13 5.6 13 16.6m-10.7-6.2c0-5.2-1.2-6.3-3.7-6.3-7.1 0-9.5 23.4-9.5 30 0 5.7 1.4 6.9 3.7 6.9 6.1-.1 9.5-21.8 9.5-30.6"/><path d="m186.2 742.2c0 1.2-1.1 1.7-2.6 1.7s-3.1-.3-5.1-.3c-2.5 0-4 .3-5.6.3-1.8 0-2.6-.6-2.6-1.7 0-1 .5-1.8 1.8-2.2 1-.3 1.3-1 1.3-2.6l.1-4.9c0-.8-.2-.9-.7-.9h-6.7c-.8 0-1 .3-1.2.8-.9 2-2.2 4.9-2.2 6.7 0 .5.2 1.1 1 1.5.7.3 1.2.9 1.2 1.7 0 1-.6 1.7-2.3 1.7-1 0-2-.2-3.6-.2-1.5 0-2.1.2-3 .2-1.5 0-2.2-.6-2.2-1.7 0-.8.5-1.5 1.2-1.7 1.6-.5 2.3-2.4 2.7-3.2 7.5-17.4 12-28.6 12-28.6.5-1.1 1.1-2.8 1.1-3.3 0-1-.3-1.4-1.1-1.7-.6-.3-.9-.5-.9-1.5 0-1.2.9-1.8 3.3-1.8 5 0 6.4-.8 8.8-.8 1.6 0 2 .8 2.1 3.1 0 0 .3 20.7 1.1 36.5 0 .8.5 1 1 1.3.7.1 1.1.6 1.1 1.6m-12.8-17.4s-.1-8.3-.2-13.2h-.2l-4.7 12c-.3.8-.7 1.6-.7 2s.3.5.6.5h4.2c.9.1 1-.1 1-1.3"/><path d="m121 742.2c0 1.2-1.1 1.7-2.6 1.7s-3.1-.3-5.1-.3c-2.5 0-4 .3-5.6.3-1.8 0-2.6-.6-2.6-1.7 0-1 .5-1.8 1.8-2.2 1-.3 1.3-1 1.3-2.6l.1-4.9c0-.8-.2-.9-.7-.9h-6.6c-.8 0-1 .3-1.2.8-.9 2-2.2 4.9-2.2 6.7 0 .5.2 1.1 1 1.5.7.3 1.2.9 1.2 1.7 0 1-.6 1.7-2.3 1.7-1 0-2-.2-3.6-.2-1.5 0-2.1.2-3 .2-1.5 0-2.2-.6-2.2-1.7 0-.8.5-1.5 1.2-1.7 1.6-.5 2.3-2.4 2.7-3.2 7.5-17.4 12-28.6 12-28.6.5-1.1 1.1-2.8 1.1-3.3 0-1-.3-1.4-1.1-1.7-.6-.3-.9-.5-.9-1.5 0-1.2.9-1.8 3.3-1.8 5.1 0 6.5-.8 8.8-.8 1.6 0 2 .8 2.1 3.1 0 0 .3 20.7 1.1 36.5 0 .8.5 1 1 1.3.6.1 1 .6 1 1.6m-12.8-17.4s-.1-8.3-.2-13.2h-.2l-4.7 12c-.3.8-.7 1.6-.7 2s.3.5.6.5h4.2c.9.1 1-.1 1-1.3"/></g><g fill="#fffdfd"><path d="m25.6 768.4c.6.8 1.3 1.4 2 1.9.8.5 1.7.7 2.6.7 1 0 1.8-.3 2.5-.8s1-1.2 1-2.1c0-.6-.2-1.1-.6-1.5s-1-.8-1.7-1.3l-2-1.2c-.8-.5-1.6-1.1-2.1-1.9-.6-.7-.8-1.7-.8-2.8 0-.8.2-1.5.5-2.2s.8-1.3 1.4-1.8 1.3-.9 2-1.2c.8-.3 1.6-.4 2.5-.4 1.2 0 2.2.3 3.2.8s1.8 1.2 2.5 2.1l-2 1.9c-.5-.6-1.1-1-1.7-1.4s-1.3-.6-2.1-.6c-.9 0-1.7.3-2.2.8s-.8 1.1-.8 1.8c0 .6.2 1.1.7 1.5.4.4 1 .8 1.8 1.3l2.1 1.2c.9.6 1.7 1.2 2.1 1.9.5.7.7 1.6.7 2.7 0 .9-.2 1.7-.5 2.4s-.8 1.4-1.4 1.9c-.6.6-1.4 1-2.2 1.3-.9.3-1.8.5-2.9.5-1.3 0-2.5-.3-3.7-.8-1.1-.6-2.1-1.5-3-2.7z"/><path d="m50.7 773.4h-2.6l.1-2.1h-.1c-.7.7-1.5 1.2-2.3 1.7s-1.7.7-2.5.7c-1.2 0-2.1-.3-2.7-1-.5-.6-.8-1.5-.8-2.7 0-.3 0-.7.1-1 0-.3.1-.7.2-1.1l1.8-9.2h3.2l-1.7 8.8c-.1.3-.1.6-.2.9 0 .2-.1.5-.1.7 0 1.2.6 1.9 1.8 1.9 1 0 2.2-.8 3.6-2.3l2-9.9h3.2z"/><path d="m60.8 773.8c-.8 0-1.6-.1-2.2-.4-.7-.3-1.2-.7-1.7-1.2s-.8-1.1-1.1-1.9c-.3-.7-.4-1.6-.4-2.5 0-1.4.2-2.7.7-3.8.5-1.2 1.1-2.1 1.8-2.9.8-.8 1.6-1.4 2.6-1.9s1.9-.7 2.9-.7c1.7 0 3 .5 4 1.6s1.5 2.5 1.5 4.3c0 1.4-.2 2.6-.7 3.8-.5 1.1-1.1 2.1-1.8 2.9-.8.8-1.6 1.5-2.6 1.9-1.1.5-2 .8-3 .8zm2.2-12.6c-.6 0-1.1.2-1.7.5-.5.3-1 .8-1.4 1.4s-.7 1.3-1 2.1c-.2.8-.4 1.7-.4 2.6 0 1.1.2 2 .7 2.6.4.6 1.1.9 1.9.9.6 0 1.1-.2 1.7-.5s1-.8 1.4-1.4.7-1.3 1-2.1.4-1.7.4-2.6c0-1.1-.2-2-.7-2.5-.4-.9-1.1-1-1.9-1z"/><path d="m73.4 758.8h2.6l-.1 2h.1c.8-.7 1.5-1.2 2.3-1.7s1.6-.7 2.4-.7c.6 0 1 .1 1.4.2s.7.3 1 .6c.3.2.5.5.6.8s.3.7.3 1.1c.9-.8 1.7-1.5 2.6-2 .8-.5 1.7-.7 2.5-.7 1.2 0 2.1.3 2.6.9s.8 1.5.8 2.7c0 .3 0 .7-.1 1 0 .3-.1.7-.2 1.1l-1.8 9.2h-3.2l1.8-8.8c.1-.3.1-.6.2-.9 0-.2.1-.5.1-.7 0-1.2-.6-1.9-1.8-1.9-.4 0-.9.2-1.5.5-.6.4-1.3.9-2 1.7l-2 9.9h-3.2l1.7-8.8c.1-.3.1-.6.2-.9 0-.2.1-.5.1-.7 0-1.2-.6-1.9-1.7-1.9-.4 0-.9.2-1.5.5-.6.4-1.3.9-2 1.7l-2 9.9h-3.2z"/><path d="m94.9 767.7c0-1.4.2-2.6.7-3.7s1.1-2.1 1.8-2.9c.8-.8 1.6-1.4 2.6-1.9.9-.4 1.9-.7 2.8-.7.8 0 1.6.1 2.1.4.6.3 1.1.7 1.4 1.1.4.5.6 1.1.8 1.7.2.7.3 1.4.3 2.1 0 .6-.1 1.2-.2 1.8-.2.6-.3 1-.4 1.2h-8.8c-.1.8 0 1.4.1 2 .2.6.4 1 .7 1.4s.7.6 1.2.8 1 .3 1.5.3 1-.1 1.6-.4c.5-.2 1-.5 1.4-.8l1.2 2c-.6.4-1.3.8-2.1 1.1s-1.8.5-2.8.5c-.9 0-1.7-.1-2.4-.4s-1.3-.7-1.8-1.2-.9-1.2-1.2-1.9c-.3-.8-.5-1.5-.5-2.5zm9.8-2.8c0-.2.1-.4.1-.6s0-.4 0-.7c0-.7-.2-1.3-.5-1.9-.3-.5-1-.8-1.9-.8s-1.7.4-2.5 1.1-1.3 1.7-1.7 2.9z"/><path d="m112 758.8h2.6l-.1 2h.1c.8-.7 1.6-1.2 2.4-1.7s1.7-.7 2.6-.7c1.2 0 2.1.3 2.6.9s.8 1.5.8 2.7v1c0 .3-.1.7-.2 1.1l-1.8 9.2h-3.2l1.8-8.8c.1-.3.1-.6.2-.9 0-.2.1-.5.1-.7 0-1.2-.6-1.9-1.8-1.9-.5 0-1.1.2-1.6.5-.6.4-1.3.9-2 1.7l-2 9.9h-3.2z"/><path d="m131.9 769.4c.5.6 1 1.1 1.6 1.5.6.3 1.2.5 1.9.5s1.3-.2 1.8-.5.8-.8.8-1.3-.2-.8-.6-1.2c-.4-.3-1.1-.7-2-1.3-1-.5-1.7-1.1-2.3-1.7s-.8-1.4-.8-2.3c0-.7.1-1.3.4-1.8.3-.6.7-1 1.1-1.4.5-.4 1-.7 1.7-.9.6-.2 1.3-.3 2.1-.3.9 0 1.8.2 2.6.6s1.4.9 2 1.5l-1.8 1.7c-.4-.4-.8-.7-1.2-1-.5-.3-1-.4-1.5-.4-.7 0-1.2.2-1.7.5-.4.4-.7.8-.7 1.3 0 .3.1.5.2.7s.3.4.6.6c.2.2.5.3.8.5s.6.3.9.5c1.1.6 1.9 1.2 2.4 1.8s.8 1.4.8 2.3c0 .7-.1 1.4-.4 1.9-.3.6-.7 1.1-1.2 1.5s-1.1.7-1.8.9-1.5.3-2.3.3c-.5 0-.9-.1-1.4-.2s-1-.3-1.4-.6c-.5-.2-.9-.5-1.3-.9-.4-.3-.7-.7-1-1.1z"/><path d="m154.7 773.4h-2.6l.1-2.1h-.1c-.7.7-1.5 1.2-2.3 1.7s-1.7.7-2.5.7c-1.2 0-2.1-.3-2.7-1-.5-.6-.8-1.5-.8-2.7 0-.3 0-.7.1-1 0-.3.1-.7.2-1.1l1.8-9.2h3.2l-1.7 8.8c-.1.3-.1.6-.2.9 0 .2-.1.5-.1.7 0 1.2.6 1.9 1.8 1.9 1 0 2.2-.8 3.6-2.3l2-9.9h3.2z"/><path d="m170.6 773.4h-2.6l.1-2.1h-.1c-.7.7-1.5 1.2-2.3 1.7s-1.7.7-2.5.7c-1.2 0-2.1-.3-2.7-1-.5-.6-.8-1.5-.8-2.7 0-.3 0-.7.1-1 0-.3.1-.7.2-1.1l1.8-9.2h3.2l-1.7 8.8c-.1.3-.1.6-.2.9 0 .2-.1.5-.1.7 0 1.2.6 1.9 1.8 1.9 1 0 2.2-.8 3.6-2.3l2-9.9h3.2z"/><path d="m177.8 758.8h2.6l-.3 2.8h.1c.6-.9 1.2-1.7 2-2.3s1.6-.9 2.5-.9c.6 0 1.1.1 1.5.3l-1.1 2.8c-.2-.1-.4-.2-.6-.2s-.5 0-.7 0c-.7 0-1.4.3-2 .8-.7.5-1.3 1.4-1.9 2.5l-1.7 8.8h-3.2z"/><path d="m188.6 758.8h3.2l-2.9 14.5h-3.2zm2.3-2.5c-.5 0-.9-.1-1.2-.4-.4-.3-.6-.7-.6-1.2 0-.6.2-1.1.6-1.5s.9-.6 1.5-.6c.5 0 .9.1 1.2.4.4.3.6.7.6 1.2 0 .6-.2 1.1-.6 1.5-.4.5-.9.6-1.5.6z"/><path d="m196 758.8h2.6l-.1 2h.1c.8-.7 1.6-1.2 2.4-1.7s1.7-.7 2.6-.7c1.2 0 2.1.3 2.6.9s.8 1.5.8 2.7v1c0 .3-.1.7-.2 1.1l-1.8 9.2h-3.2l1.8-8.8c.1-.3.1-.6.2-.9 0-.2.1-.5.1-.7 0-1.2-.6-1.9-1.8-1.9-.5 0-1.1.2-1.6.5-.6.4-1.3.9-2 1.7l-2 9.9h-3.2z"/><path d="m226.4 773.4h-2.6l.1-2.1h-.1c-.7.7-1.5 1.2-2.3 1.7s-1.7.7-2.5.7c-1.2 0-2.1-.3-2.7-1-.5-.6-.8-1.5-.8-2.7 0-.3 0-.7.1-1 0-.3.1-.7.2-1.1l1.8-9.2h3.2l-1.7 8.8c-.1.3-.1.6-.2.9 0 .2-.1.5-.1.7 0 1.2.6 1.9 1.8 1.9 1 0 2.2-.8 3.6-2.3l2-9.9h3.2z"/><path d="m242.4 773.4h-2.6l.1-2.1h-.1c-.7.7-1.5 1.2-2.3 1.7s-1.7.7-2.5.7c-1.2 0-2.1-.3-2.7-1-.5-.6-.8-1.5-.8-2.7 0-.3 0-.7.1-1 0-.3.1-.7.2-1.1l1.8-9.2h3.2l-1.7 8.8c-.1.3-.1.6-.2.9 0 .2-.1.5-.1.7 0 1.2.6 1.9 1.8 1.9 1 0 2.2-.8 3.6-2.3l2-9.9h3.2z"/><path d="m249.6 761.3h-2l.5-2.4 2.2-.1 1.2-3.9h2.7l-.8 3.9h3.5l-.5 2.5h-3.6l-1.5 7.2c-.1.4-.1.7-.1 1 0 .5.1.9.4 1.2s.7.4 1.3.4c.3 0 .5 0 .7-.1s.4-.2.7-.3l.6 2.3c-.4.2-.8.3-1.3.4s-1.1.2-1.8.2c-1.4 0-2.3-.3-2.9-1s-.9-1.5-.9-2.5c0-.3 0-.6.1-.9 0-.3.1-.6.1-.9z"/><path d="m259.8 758.8h3.2l-2.9 14.5h-3.2zm2.4-2.5c-.5 0-.9-.1-1.2-.4-.4-.3-.6-.7-.6-1.2 0-.6.2-1.1.6-1.5s.9-.6 1.5-.6c.5 0 .9.1 1.2.4.4.3.6.7.6 1.2 0 .6-.2 1.1-.6 1.5s-1 .6-1.5.6z"/><path d="m265.4 769.4c.5.6 1 1.1 1.6 1.5.6.3 1.2.5 1.9.5s1.3-.2 1.8-.5c.5-.4.8-.8.8-1.3s-.2-.8-.6-1.2-1.1-.7-2-1.3c-1-.5-1.7-1.1-2.3-1.7s-.8-1.4-.8-2.3c0-.7.1-1.3.4-1.8.3-.6.7-1 1.1-1.4.5-.4 1-.7 1.7-.9.6-.2 1.3-.3 2.1-.3.9 0 1.8.2 2.6.6s1.4.9 2 1.5l-1.8 1.7c-.4-.4-.8-.7-1.2-1-.5-.3-1-.4-1.5-.4-.7 0-1.2.2-1.7.5-.4.4-.7.8-.7 1.3 0 .3.1.5.2.7s.3.4.6.6c.2.2.5.3.8.5s.6.3.9.5c1.1.6 1.9 1.2 2.4 1.8s.8 1.4.8 2.3c0 .7-.1 1.4-.4 1.9-.3.6-.7 1.1-1.2 1.5s-1.1.7-1.8.9-1.5.3-2.3.3c-.5 0-.9-.1-1.4-.2s-1-.3-1.4-.6c-.5-.2-.9-.5-1.3-.9-.4-.3-.7-.7-1-1.1z"/><path d="m279.5 758.8h2.6l-.1 2h.1c.8-.7 1.5-1.2 2.3-1.7s1.6-.7 2.4-.7c.6 0 1 .1 1.4.2s.7.3 1 .6.5.5.6.8.3.7.3 1.1c.9-.8 1.7-1.5 2.6-2 .8-.5 1.7-.7 2.5-.7 1.2 0 2.1.3 2.6.9s.8 1.5.8 2.7c0 .3 0 .7-.1 1 0 .3-.1.7-.2 1.1l-1.8 9.2h-3.2l1.8-8.8c.1-.3.1-.6.2-.9 0-.2.1-.5.1-.7 0-1.2-.6-1.9-1.8-1.9-.4 0-.9.2-1.5.5-.6.4-1.3.9-2 1.7l-2 9.9h-3.2l1.7-8.8c.1-.3.1-.6.2-.9 0-.2.1-.5.1-.7 0-1.2-.6-1.9-1.7-1.9-.4 0-.9.2-1.5.5-.6.4-1.3.9-2 1.7l-2 9.9h-3.2z"/><path d="m301 767.7c0-1.4.2-2.6.7-3.7s1.1-2.1 1.8-2.9c.8-.8 1.6-1.4 2.6-1.9.9-.4 1.9-.7 2.8-.7.8 0 1.6.1 2.1.4.6.3 1.1.7 1.4 1.1.4.5.6 1.1.8 1.7.2.7.3 1.4.3 2.1 0 .6-.1 1.2-.2 1.8-.2.6-.3 1-.4 1.2h-8.9c-.1.8 0 1.4.1 2 .2.6.4 1 .7 1.4s.7.6 1.2.8 1 .3 1.5.3 1-.1 1.6-.4c.5-.2 1-.5 1.4-.8l1.2 2c-.6.4-1.3.8-2.1 1.1s-1.8.5-2.8.5c-.9 0-1.7-.1-2.4-.4s-1.3-.7-1.8-1.2-.9-1.2-1.2-1.9c-.3-.8-.4-1.5-.4-2.5zm9.7-2.8c0-.2.1-.4.1-.6s0-.4 0-.7c0-.7-.2-1.3-.5-1.9-.3-.5-1-.8-1.9-.8s-1.7.4-2.5 1.1-1.3 1.7-1.7 2.9z"/><path d="m327 757.7 1-5.2h3.2l-4.2 20.9h-2.6l.1-2h-.1c-.7.7-1.5 1.3-2.3 1.7s-1.7.7-2.5.7c-1.3 0-2.3-.5-3-1.4s-1.1-2.2-1.1-3.9c0-1.4.2-2.7.7-3.9.4-1.2 1-2.3 1.7-3.2s1.6-1.6 2.5-2.1 1.9-.8 2.9-.8c.7 0 1.3.2 1.9.5.6.4 1 .8 1.3 1.4h.1zm-6.1 13.5c.6 0 1.3-.2 1.9-.6.7-.4 1.3-1 1.9-1.9l1.2-5.8c-.3-.6-.7-1.1-1.1-1.4s-.9-.4-1.3-.4c-.6 0-1.2.2-1.8.5-.6.4-1.1.9-1.5 1.5s-.8 1.4-1 2.2c-.3.8-.4 1.7-.4 2.7 0 1.1.2 1.9.6 2.4.3.5.9.8 1.5.8z"/><path d="m334 758.8h3.2l-2.9 14.5h-3.2zm2.4-2.5c-.5 0-.9-.1-1.2-.4-.4-.3-.6-.7-.6-1.2 0-.6.2-1.1.6-1.5s.9-.6 1.5-.6c.5 0 .9.1 1.2.4.4.3.6.7.6 1.2 0 .6-.2 1.1-.6 1.5s-.9.6-1.5.6z"/><path d="m338.9 768.4c0-1.4.2-2.7.7-3.9.4-1.2 1-2.3 1.7-3.2s1.6-1.6 2.5-2.1 1.9-.8 2.9-.8c.7 0 1.4.2 2 .5s1.1.9 1.4 1.5h.1l.6-1.7h2.5l-2.9 14.5h-2.6l.1-2h-.1c-.7.7-1.5 1.3-2.3 1.7s-1.7.7-2.5.7c-1.3 0-2.3-.5-3-1.4-.7-.7-1.1-2-1.1-3.8zm5.5 2.8c.6 0 1.3-.2 1.9-.6.7-.4 1.3-1 1.9-1.9l1.2-5.8c-.3-.6-.7-1.1-1.1-1.4s-.9-.4-1.3-.4c-.6 0-1.2.2-1.8.5-.6.4-1.1.9-1.5 1.5s-.8 1.4-1 2.2c-.3.8-.4 1.7-.4 2.7 0 1.1.2 1.9.6 2.4.3.5.8.8 1.5.8z"/></g></g></svg>