<svg viewBox="0 0 160 160" xmlns="http://www.w3.org/2000/svg"><path d="m0 160h160v-160h-160z" fill="#da2128"/><g fill="#fff"><path d="m140.9 35.3c-.3 3.5-2.3 12.6-4.4 19.8-.7 2.4-2.1 3.6-4.6 3.6-2.7 0-4.6-1.7-4.5-4.8.1-2.5.4-4.9.4-9.3 0-3.8-4.6-8.7-12.6-8.7-7.4 0-12.6 3.9-12.6 10.6 0 5.7 2.5 8.7 5.9 12.6 5.2 6 7.8 8.9 14.1 15.8 5.9 6.5 11.6 15.3 11.6 28.7 0 16.7-14.2 30.9-37.2 30.9-12.4 0-21.1-4.4-25.4-6.5-1.9-.9-3-2.2-2.6-5.1.3-2.1 2.9-12.9 5.5-21.1 1.1-3.6 2.5-5.5 5.7-5.5 2.3 0 3.8 1.4 3.8 4.7 0 2-.3 4.6-.5 8.5s-.9 13.7 14.9 13.7c7.2 0 12.1-4.7 12.1-10.8 0-4.7-.8-9.5-6.5-15.5-4-4.3-6.9-7.4-11.5-12.5-8.7-9.8-12.3-16.8-12.3-28 0-20 15.8-31 35.7-31 10.4 0 16.4 2.3 20.6 4 3.4 1.4 4.7 2.8 4.4 5.9"/><path d="m73.9 29.7c0 2.5-1.2 3.7-3.5 4.6-2.1.8-3.3 1.6-4 5.2-2.6 12.1-6.1 33.5-11.6 75-.1.9-.3 2.3-.3 3.1 0 4.3 0 5.2 2.6 6.4 1.8.9 2.5 2.1 2.5 4 0 2.9-2.3 4-5.7 4-3.8 0-9.9-.7-15.8-.7-5.1 0-9.3.7-13 .7-4.8 0-6-1.4-6-4.2 0-2.1 1.1-3.2 2.7-4 2.6-1.3 4.5-1.8 5.6-7.7 5-25.3 10.6-70 11-74 .5-6-.1-6.8-2.1-7.8-1.7-.9-2.7-2.2-2.7-4.3 0-2.7 2-4.4 7.7-4.4 3.1 0 7.2.7 13 .7 5.9 0 8.9-.7 11.7-.7 6.9-.1 7.9 1.4 7.9 4.1"/></g></svg>