<?xml version="1.0" encoding="UTF-8" standalone="no"?><svg width="77px" height="18px" viewBox="0 0 77 18" version="1.1" xmlns="http://www.w3.org/2000/svg" xmlns:xlink="http://www.w3.org/1999/xlink"><title>8618F908-13F3-427B-88ED-893D48FCC073</title><desc>Created with sketchtool.</desc><defs><polygon id="path-1" points="1.87804878e-05 17.6536585 31.4098632 17.6536585 31.4098632 0.0117378049 1.87804878e-05 0.0117378049 1.87804878e-05 17.6536585"></polygon><polygon id="path-3" points="31.5623 17.819509 31.5623 0.177663415 0.152493139 0.177663415 0.152493139 17.819509 31.5623 17.819509"></polygon></defs><g id="Page-1" stroke="none" stroke-width="1" fill="none" fill-rule="evenodd"><g id="video-play-icons" transform="translate(-557.000000, -1087.000000)"><g id="Page-1" transform="translate(557.000000, 1087.000000)"><path d="M47.1147788,9.03078537 C47.1147788,13.8380268 43.2176398,17.7351659 38.4103983,17.7351659 C33.602969,17.7351659 29.7060178,13.8380268 29.7060178,9.03078537 C29.7060178,4.2235439 33.602969,0.326404878 38.4103983,0.326404878 C43.2176398,0.326404878 47.1147788,4.2235439 47.1147788,9.03078537" id="Fill-1" fill="#E01B22"></path><polygon id="Fill-3" fill="#FFFFFF" points="34.9404966 13.7352412 43.05686 9.03072902 34.9404966 4.32509"></polygon><polygon id="Fill-5" fill="#FFFFFF" points="34.9404966 13.7352412 43.05686 9.03072902 34.9404966 4.32509"></polygon><g id="Group-9" transform="translate(0.000000, 0.198021)"><mask id="mask-2" fill="white"><use xlink:href="#path-1"></use></mask><g id="Clip-8"></g><path d="M27.9658554,8.83274512 C27.9658554,5.08660122 29.6132798,3.27109146 31.16267,1.39454512 C31.4618432,1.03245732 31.7790456,0.0117378049 30.2296554,0.0117378049 L18.3772895,0.0117378049 L8.86647488,0.0117378049 C3.96965049,0.0117378049 1.87804878e-05,3.96108659 1.87804878e-05,8.83274512 C1.87804878e-05,13.7044037 3.96965049,17.6537524 8.86647488,17.6537524 L18.3772895,17.6537524 L30.2296554,17.6537524 C31.7790456,17.6537524 31.4618432,16.6330329 31.16267,16.2709451 C29.6132798,14.3943988 27.9658554,12.578889 27.9658554,8.83274512" id="Fill-7" fill="#E01B22" mask="url(#mask-2)"></path></g><g id="Group-12" transform="translate(45.260976, 0.010217)"><mask id="mask-4" fill="white"><use xlink:href="#path-3"></use></mask><g id="Clip-11"></g><path d="M3.59650098,8.99850171 C3.59650098,5.2523578 1.94907659,3.43684805 0.399686341,1.56030171 C0.100513171,1.1982139 -0.216689268,0.17749439 1.33270098,0.17749439 L13.1850668,0.17749439 L22.6958815,0.17749439 C27.5927059,0.17749439 31.5623376,4.12684317 31.5623376,8.99850171 C31.5623376,13.8701602 27.5927059,17.819509 22.6958815,17.819509 L13.1850668,17.819509 L1.33270098,17.819509 C-0.216689268,17.819509 0.100513171,16.7987895 0.399686341,16.4367017 C1.94907659,14.5601554 3.59650098,12.7446456 3.59650098,8.99850171" id="Fill-10" fill="#231F1F" mask="url(#mask-4)"></path></g><polygon id="Fill-13" fill="#FFFFFF" points="54.5607351 12.7654356 55.5164741 12.7654356 55.5164741 5.06092829 54.193201 5.06092829 54.193201 7.03118927 52.4580717 7.03118927 52.4580717 3.60525268 60.5744351 3.60525268 60.5744351 7.03118927 58.8394937 7.03118927 58.8394937 5.06092829 57.5160327 5.06092829 57.5160327 12.7800844 58.4424741 12.7800844 58.4424741 14.3681624 54.5607351 14.3681624"></polygon><path d="M61.8389066,5.23729585 L61.1331359,5.23729585 L61.1331359,3.60527146 L65.1470895,3.60527146 L65.1470895,5.16386415 L63.8825993,5.16386415 L65.1324407,9.89823732 C65.382409,10.8098422 65.6177285,11.7214471 65.6765115,12.1626007 C65.7499432,11.7362837 65.9706139,10.8246788 66.2205822,9.9128861 L67.4702359,5.16386415 L66.2940139,5.16386415 L66.2940139,3.60527146 L69.7787334,3.60527146 L69.7787334,5.23729585 L69.0729627,5.23729585 L66.4851993,14.4121276 L64.4413188,14.4121276 L61.8389066,5.23729585 Z" id="Fill-15" fill="#FFFFFF"></path><path d="M22.2931715,4.3534861 C22.2625593,4.72195927 22.0473349,5.67844951 21.8289178,6.42948122 C21.7547349,6.68395683 21.6103129,6.81166415 21.3509544,6.81166415 C21.0641763,6.81166415 20.872991,6.63362512 20.8840715,6.30628122 C20.8927105,6.04711049 20.9276422,5.78812756 20.9276422,5.33683244 C20.9276422,4.94112756 20.4496788,4.42203488 19.6028666,4.42203488 C18.8246032,4.42203488 18.2782788,4.83163732 18.2782788,5.52783 C18.2782788,6.12899341 18.5361349,6.44225195 18.8927763,6.85260561 C19.4391007,7.48100073 19.7123568,7.78130073 20.3677959,8.50510073 C20.9841715,9.18589341 21.5830812,10.1027568 21.5830812,11.5094154 C21.5830812,13.2573154 20.0945398,14.7458568 17.6910129,14.7458568 C16.3938446,14.7458568 15.4788593,14.2814154 15.0281276,14.0629983 C14.8299934,13.96703 14.7178739,13.8286178 14.7552471,13.5303837 C14.782291,13.3119666 15.0555471,12.1783763 15.3286154,11.3180422 C15.4474959,10.9435593 15.5879739,10.7446739 15.9294032,10.7446739 C16.1752398,10.7446739 16.3254837,10.8949178 16.3254837,11.2363471 C16.3254837,11.4431202 16.2918666,11.7182544 16.2708324,12.1239129 C16.2496105,12.5342666 16.1752398,13.5578032 17.8277349,13.5578032 C18.5787666,13.5578032 19.0976715,13.06613 19.0976715,12.4242129 C19.0976715,11.9325398 19.0110934,11.4339178 18.4150007,10.7993251 C17.9916885,10.3487812 17.6898861,10.0218129 17.2132373,9.48825927 C16.2980641,8.46397146 15.9294032,7.72683732 15.9294032,6.55230561 C15.9294032,4.46278854 17.5818983,3.31567634 19.6712276,3.31567634 C20.7638763,3.31567634 21.391708,3.56151293 21.8289178,3.73917634 C22.1797373,3.88153244 22.320591,4.02595439 22.2931715,4.3534861" id="Fill-17" fill="#FFFFFF"></path><path d="M14.8627278,3.8891761 C14.8627278,4.14872244 14.740279,4.27304927 14.4940668,4.36732732 C14.2760254,4.45052488 14.1526376,4.53109317 14.0705668,4.9132761 C13.798062,6.18246146 13.4286498,8.42334927 12.8552815,12.7659615 C12.8426985,12.8615541 12.827862,13.011798 12.827862,13.0934932 C12.827862,13.5442249 12.8299278,13.6353102 13.101118,13.7628298 C13.2945571,13.8537273 13.3604766,13.9812468 13.3604766,14.186142 C13.3604766,14.486442 13.11464,14.6092663 12.7596888,14.6092663 C12.3636083,14.6092663 11.7175595,14.5371493 11.1071937,14.5379005 C10.5738278,14.5386517 10.1377449,14.6092663 9.74166439,14.6092663 C9.23646927,14.6092663 9.11345707,14.4590224 9.11345707,14.1724322 C9.11345707,13.9538273 9.22444976,13.8343834 9.40023512,13.7489322 C9.67499366,13.6159663 9.86693024,13.5586859 9.98750098,12.9432493 C10.506218,10.2948249 11.0961132,5.61022 11.1344254,5.1865322 C11.191518,4.55982732 11.1207156,4.47681756 10.9160083,4.36732732 C10.7381571,4.27192244 10.6292302,4.13501268 10.6292302,3.91659561 C10.6292302,3.62981756 10.8341254,3.45215415 11.4349132,3.45215415 C11.7628205,3.45215415 12.1859449,3.52051512 12.8006302,3.52051512 C13.4151278,3.52051512 13.7291376,3.45215415 14.0296254,3.45215415 C14.7534254,3.45215415 14.8627278,3.60239805 14.8627278,3.8891761" id="Fill-19" fill="#FFFFFF"></path></g></g></g></svg>
