<?xml version="1.0" encoding="UTF-8" standalone="no"?><svg width="42px" height="17px" viewBox="0 0 42 17" version="1.1" xmlns="http://www.w3.org/2000/svg" xmlns:xlink="http://www.w3.org/1999/xlink"><title>9F21E684-B338-4DAD-A2E8-6FC1EEF539C6</title><desc>Created with sketchtool.</desc><defs><polygon id="path-1" points="17.0972597 9.60295522 0 9.60295522 0 0 17.0972597 0"></polygon><polygon id="path-3" points="24.7198917 0.0507761194 0 0.0507761194 0 16.5074627 41.8171642 16.5074627 41.8171642 0.0507761194 24.7198917 0.0507761194 24.7198917 9.6539194 41.8171433 9.6539194 41.8171433 0.0507552239 24.7198917 0.0507552239"></polygon></defs><g id="Page-1" stroke="none" stroke-width="1" fill="none" fill-rule="evenodd"><g id="LIVE-OTTELUT/CAROUSEL" transform="translate(-5346.000000, -1363.000000)"><g id="Group-8" transform="translate(4719.000000, 1200.000000)"><g id="Group-Copy" transform="translate(627.000000, 163.000000)"><g id="Page-1" transform="translate(24.656716, 0.208955)"><mask id="mask-2" fill="white"><use xlink:href="#path-1"></use></mask><g id="Clip-2"></g><path d="M1.87466269,4.80147761 C1.87466269,2.76228358 0.977826866,1.77413433 0.134483582,0.752761194 C-0.0282925373,0.555507463 -0.200889552,-0.000104477612 0.642453731,-0.000104477612 L7.09394627,-0.000104477612 L12.2710209,-0.000104477612 C14.9364537,-0.000104477612 17.0972597,2.14962687 17.0972597,4.80147761 C17.0972597,7.45332836 14.9364537,9.6030597 12.2710209,9.6030597 L7.09394627,9.6030597 L0.642453731,9.6030597 C-0.200889552,9.6030597 -0.0282925373,9.04744776 0.134483582,8.85019403 C0.977826866,7.8288209 1.87466269,6.84067164 1.87466269,4.80147761" id="Fill-1" fill="#231F1F" mask="url(#mask-2)"></path></g><g id="Page-1"><path d="M25.6459313,5.02244776 C25.6459313,7.63919403 23.5246179,9.76050746 20.9078716,9.76050746 C18.2911254,9.76050746 16.1698119,7.63919403 16.1698119,5.02244776 C16.1698119,2.40570149 18.2911254,0.28438806 20.9078716,0.28438806 C23.5246179,0.28438806 25.6459313,2.40570149 25.6459313,5.02244776" id="Fill-1" fill="#E01B22"></path><polygon id="Fill-3" fill="#FFFFFF" points="19.0191254 7.58321493 23.4370657 5.02246866 19.0191254 2.46109552"></polygon><polygon id="Fill-5" fill="#FFFFFF" points="19.0191254 7.58321493 23.4370657 5.02246866 19.0191254 2.46109552"></polygon><path d="M15.2226179,5.02242687 C15.2226179,2.98323284 16.1194537,1.99508358 16.962797,0.973710448 C17.1255731,0.776456716 17.2981701,0.220844776 16.4548269,0.220844776 L10.0033343,0.220844776 L4.8262597,0.220844776 C2.16082687,0.220844776 2.08955225e-05,2.37057612 2.08955225e-05,5.02242687 C2.08955225e-05,7.67427761 2.16082687,9.82400896 4.8262597,9.82400896 L10.0033343,9.82400896 L16.4548269,9.82400896 C17.2981701,9.82400896 17.1255731,9.26839701 16.962797,9.07114328 C16.1194537,8.04977015 15.2226179,7.0616209 15.2226179,5.02242687" id="Fill-7" fill="#E01B22"></path><g id="Group-11" transform="translate(0.000000, 0.158096)"><mask id="mask-4" fill="white"><use xlink:href="#path-3"></use></mask><g id="Clip-10"></g><path d="M26.5945463,4.85233731 C26.5945463,2.81314328 25.6977104,1.82499403 24.8543672,0.803620896 C24.691591,0.606367164 24.518994,0.0507552239 25.3623373,0.0507552239 L31.8138299,0.0507552239 L36.9909045,0.0507552239 C39.6563373,0.0507552239 41.8171433,2.20048657 41.8171433,4.85233731 C41.8171433,7.50418806 39.6563373,9.6539194 36.9909045,9.6539194 L31.8138299,9.6539194 L25.3623373,9.6539194 C24.518994,9.6539194 24.691591,9.09830746 24.8543672,8.90105373 C25.6977104,7.8796806 26.5945463,6.89153134 26.5945463,4.85233731" id="Fill-9" fill="#231F1F" mask="url(#mask-4)"></path></g><polygon id="Fill-12" fill="#FFFFFF" points="29.6989731 7.05533134 30.2192716 7.05533134 30.2192716 2.8616 29.498794 2.8616 29.498794 3.93395821 28.5545254 3.93395821 28.5545254 2.06924179 32.9724657 2.06924179 32.9724657 3.93395821 32.0279881 3.93395821 32.0279881 2.8616 31.3077194 2.8616 31.3077194 7.06327164 31.8119284 7.06327164 31.8119284 7.9277194 29.6989731 7.9277194"></polygon><path d="M33.6607015,2.95755224 L33.2764328,2.95755224 L33.2764328,2.06907463 L35.4614776,2.06907463 L35.4614776,2.91743284 L34.7731791,2.91743284 L35.4535373,5.49468657 C35.5895672,5.99095522 35.7176567,6.48701493 35.7496269,6.72710448 C35.7895373,6.49516418 35.9096866,5.99889552 36.0457164,5.50262687 L36.7260746,2.91743284 L36.0858358,2.91743284 L36.0858358,2.06907463 L37.9825224,2.06907463 L37.9825224,2.95755224 L37.5984627,2.95755224 L36.1898955,7.95179104 L35.0774179,7.95179104 L33.6607015,2.95755224 Z" id="Fill-14" fill="#FFFFFF"></path><path d="M12.1348239,2.47645373 C12.1181075,2.67705075 12.0010925,3.19755821 11.8819881,3.60648358 C11.8416597,3.7450209 11.7630925,3.81460299 11.6220478,3.81460299 C11.4657493,3.81460299 11.3616896,3.71764776 11.3677493,3.53940896 C11.3725552,3.39836418 11.3915701,3.2573194 11.3915701,3.01158806 C11.3915701,2.79636418 11.1314209,2.51364776 10.6704657,2.51364776 C10.2467045,2.51364776 9.94936119,2.73660299 9.94936119,3.11564776 C9.94936119,3.44287164 10.0897791,3.6133791 10.2838985,3.83675224 C10.5812418,4.17881194 10.7300179,4.34221493 11.0867045,4.73630448 C11.4222866,5.10678209 11.7482567,5.60597612 11.7482567,6.37158806 C11.7482567,7.32296119 10.9381373,8.13328955 9.6296597,8.13328955 C8.9236,8.13328955 8.4256597,7.88045373 8.18013731,7.76155821 C8.07252537,7.7093194 8.01130149,7.63409552 8.03157015,7.47173731 C8.04640597,7.35284179 8.19518209,6.73579701 8.34374925,6.26752836 C8.40852537,6.06358806 8.48500299,5.95534925 8.67076418,5.95534925 C8.80470448,5.95534925 8.88640597,6.03705075 8.88640597,6.2230209 C8.88640597,6.33543881 8.86822687,6.4852597 8.85673433,6.70612537 C8.84524179,6.92949851 8.80470448,7.48657313 9.70404776,7.48657313 C10.1129731,7.48657313 10.3954806,7.21911045 10.3954806,6.86952836 C10.3954806,6.60206567 10.3482567,6.33042388 10.0237493,5.9850209 C9.7934806,5.73991642 9.62903284,5.56188657 9.3697194,5.27143881 C8.87157015,4.71394627 8.67076418,4.31254328 8.67076418,3.67334925 C8.67076418,2.53600597 9.57031642,1.91164776 10.7076597,1.91164776 C11.3023463,1.91164776 11.644197,2.0453791 11.8819881,2.14212537 C12.0729731,2.21964776 12.1496597,2.29821493 12.1348239,2.47645373" id="Fill-16" fill="#FFFFFF"></path><path d="M8.09020299,2.22372239 C8.09020299,2.36497612 8.02354627,2.43267761 7.88939701,2.48387164 C7.7709194,2.52921493 7.70363582,2.57309552 7.6589194,2.78121493 C7.51056119,3.4720209 7.30954627,4.69190149 6.99757612,7.05560299 C6.9906806,7.10763284 6.98253134,7.18933433 6.98253134,7.23384179 C6.98253134,7.47915522 6.98378507,7.52888657 7.13130746,7.5982597 C7.2366209,7.64778209 7.27256119,7.71715522 7.27256119,7.82873731 C7.27256119,7.9921403 7.1386209,8.05900597 6.94554627,8.05900597 C6.72990448,8.05900597 6.37823284,8.01972239 6.04599403,8.0201403 C5.75554627,8.02055821 5.51817313,8.05900597 5.30253134,8.05900597 C5.02754627,8.05900597 4.9606806,7.97730448 4.9606806,7.82121493 C4.9606806,7.7023194 5.02106866,7.63712537 5.11677015,7.59073731 C5.26638209,7.51822985 5.3708597,7.48709552 5.43647164,7.1521403 C5.71877015,5.71055821 6.03993433,3.16046866 6.06082985,2.92999104 C6.09175522,2.58876716 6.05330746,2.54363284 5.94193433,2.48387164 C5.84518806,2.43205075 5.78584478,2.35745373 5.78584478,2.23855821 C5.78584478,2.08246866 5.89721791,1.98593134 6.22444179,1.98593134 C6.40288955,1.98593134 6.63315821,2.02291642 6.96769552,2.02291642 C7.30223284,2.02291642 7.47315821,1.98593134 7.63677015,1.98593134 C8.03065075,1.98593134 8.09020299,2.06763284 8.09020299,2.22372239" id="Fill-18" fill="#FFFFFF"></path><polygon id="Fill-20" fill="#FFFFFF" points="36.7178627 13.3222746 36.3747582 14.576006 37.1311761 14.576006 36.7880716 13.3222746"></polygon><path d="M33.506806,12.9043642 L33.0149254,12.9043642 L33.0149254,13.7401851 L33.506806,13.7401851 C33.9176119,13.7401851 34.0977313,13.6302746 34.0977313,13.3197672 C34.0977313,13.0092597 33.9176119,12.9043642 33.506806,12.9043642" id="Fill-22" fill="#FFFFFF"></path><path d="M37.6001552,15.8297373 L37.3859761,15.2028716 L36.1197075,15.2028716 L35.9055284,15.8297373 L35.1296776,15.8297373 L34.9439164,15.8297373 L34.0677672,15.8297373 L33.3926328,14.576006 L33.0148418,14.576006 L33.0148418,15.8297373 L32.1790209,15.8297373 L32.1790209,12.0685433 L33.5418269,12.0685433 C34.4936179,12.0685433 35.0745134,12.4241851 35.0745134,13.315797 C35.0745134,13.8969015 34.8703642,14.2523343 34.3843343,14.4176179 L35.0185134,15.5936179 L36.2509313,12.0685433 L37.2547522,12.0685433 L38.5617672,15.8297373 L37.6001552,15.8297373 Z M31.7611104,12.9043642 L30.7163343,12.9043642 L30.7163343,15.8297373 L29.6715582,15.8297373 L29.6715582,12.9043642 L28.6267821,12.9043642 L28.6267821,12.0685433 L31.7611104,12.0685433 L31.7611104,12.9043642 Z M28.5331701,15.1328716 L27.8051701,15.8610806 L26.6740955,14.730006 L25.542603,15.8612896 L24.814603,15.1332896 L25.9460955,14.002006 L24.8108418,12.8665433 L25.5388418,12.1385433 L26.6740955,13.273797 L27.8070507,12.1408418 L28.5350507,12.8690507 L27.4023045,14.002006 L28.5331701,15.1328716 Z M24.6566328,15.8297373 L22.1491701,15.8297373 L22.1491701,12.0685433 L24.6566328,12.0685433 L24.6566328,12.9043642 L22.984991,12.9043642 L22.984991,13.7401851 L24.2387224,13.7401851 L24.2387224,14.3670507 L22.984991,14.3670507 L22.984991,14.9939164 L24.6566328,14.9939164 L24.6566328,15.8297373 Z M39.2834985,11.6416478 C39.2834985,11.4157672 39.1004537,11.2327224 38.8745731,11.2327224 L21.3045731,11.2327224 C21.0786925,11.2327224 20.8954388,11.4157672 20.8954388,11.6416478 L20.8954388,16.2566328 C20.8954388,16.4825134 21.0786925,16.6655582 21.3045731,16.6655582 L38.8745731,16.6655582 C39.1004537,16.6655582 39.2834985,16.4825134 39.2834985,16.2566328 L39.2834985,11.6416478 Z" id="Fill-24" fill="#FFFFFF"></path></g></g></g></g></g></svg>
