<?xml version="1.0" encoding="UTF-8" standalone="no"?><svg width="61px" height="25px" viewBox="0 0 61 25" version="1.1" xmlns="http://www.w3.org/2000/svg" xmlns:xlink="http://www.w3.org/1999/xlink"><title>C028D93D-394A-4302-92BA-D8E22141EEE6</title><desc>Created with sketchtool.</desc><defs><polygon id="path-1" points="24.8317343 13.9471493 0 13.9471493 0 0 24.8317343 0"></polygon><polygon id="path-3" points="35.9026998 0.0737462687 0 0.0737462687 0 23.9751244 60.7344527 23.9751244 60.7344527 0.0737462687 35.9026998 0.0737462687 35.9026998 14.0211687 60.7344224 14.0211687 60.7344224 0.0737159204 35.9026998 0.0737159204"></polygon></defs><g id="Page-1" stroke="none" stroke-width="1" fill="none" fill-rule="evenodd"><g id="video-play-icons" transform="translate(-112.000000, -883.000000)"><g id="Group-Copy" transform="translate(112.000000, 883.000000)"><g id="Page-1" transform="translate(35.810945, 0.303483)"><mask id="mask-2" fill="white"><use xlink:href="#path-1"></use></mask><g id="Clip-2"></g><path d="M2.72272438,6.97357463 C2.72272438,4.01188806 1.42017711,2.57671891 0.195321393,1.09329602 C-0.0410915423,0.806808458 -0.291768159,-0.000151741294 0.933087562,-0.000151741294 L10.3031124,-0.000151741294 L17.822197,-0.000151741294 C21.6934209,-0.000151741294 24.8317343,3.12207711 24.8317343,6.97357463 C24.8317343,10.8250721 21.6934209,13.947301 17.822197,13.947301 L10.3031124,13.947301 L0.933087562,13.947301 C-0.291768159,13.947301 -0.0410915423,13.1403408 0.195321393,12.8538532 C1.42017711,11.3704303 2.72272438,9.93526119 2.72272438,6.97357463" id="Fill-1" fill="#231F1F" mask="url(#mask-2)"></path></g><g id="Page-1"><path d="M37.2476622,7.29450746 C37.2476622,11.0950199 34.166707,14.1759751 30.3661945,14.1759751 C26.5656821,14.1759751 23.4847269,11.0950199 23.4847269,7.29450746 C23.4847269,3.49399502 26.5656821,0.413039801 30.3661945,0.413039801 C34.166707,0.413039801 37.2476622,3.49399502 37.2476622,7.29450746" id="Fill-1" fill="#E01B22"></path><polygon id="Fill-3" fill="#FFFFFF" points="27.6230154 11.0137169 34.0395478 7.29453781 27.6230154 3.57444826"></polygon><polygon id="Fill-5" fill="#FFFFFF" points="27.6230154 11.0137169 34.0395478 7.29453781 27.6230154 3.57444826"></polygon><path d="M22.1090403,7.29447711 C22.1090403,4.33279055 23.4115876,2.89762139 24.6364433,1.41419851 C24.8728562,1.12771095 25.1235328,0.320750746 23.8986771,0.320750746 L14.5286522,0.320750746 L7.00956766,0.320750746 C3.13834378,0.320750746 3.03482587e-05,3.4429796 3.03482587e-05,7.29447711 C3.03482587e-05,11.1459746 3.13834378,14.2682035 7.00956766,14.2682035 L14.5286522,14.2682035 L23.8986771,14.2682035 C25.1235328,14.2682035 24.8728562,13.4612433 24.6364433,13.1747557 C23.4115876,11.6913328 22.1090403,10.2561637 22.1090403,7.29447711" id="Fill-7" fill="#E01B22"></path><g id="Group-11" transform="translate(0.000000, 0.229615)"><mask id="mask-4" fill="white"><use xlink:href="#path-3"></use></mask><g id="Clip-10"></g><path d="M38.6254124,7.04744229 C38.6254124,4.08575572 37.3228652,2.65058657 36.0980095,1.16716368 C35.8615965,0.880676119 35.6109199,0.0737159204 36.8357756,0.0737159204 L46.2058005,0.0737159204 L53.7248851,0.0737159204 C57.596109,0.0737159204 60.7344224,3.19594478 60.7344224,7.04744229 C60.7344224,10.8989398 57.596109,14.0211687 53.7248851,14.0211687 L46.2058005,14.0211687 L36.8357756,14.0211687 C35.6109199,14.0211687 35.8615965,13.2142085 36.0980095,12.9277209 C37.3228652,11.444298 38.6254124,10.0091289 38.6254124,7.04744229" id="Fill-9" fill="#231F1F" mask="url(#mask-4)"></path></g><polygon id="Fill-12" fill="#FFFFFF" points="43.1342229 10.2470289 43.8898945 10.2470289 43.8898945 4.15613333 42.8434866 4.15613333 42.8434866 5.71360597 41.4720488 5.71360597 41.4720488 3.00532736 47.8885811 3.00532736 47.8885811 5.71360597 46.5168398 5.71360597 46.5168398 4.15613333 45.4707353 4.15613333 45.4707353 10.2585612 46.2030388 10.2585612 46.2030388 11.5140687 43.1342229 11.5140687"></polygon><path d="M48.8881617,4.29549254 L48.3300572,4.29549254 L48.3300572,3.00508458 L51.5035746,3.00508458 L51.5035746,4.23722388 L50.503903,4.23722388 L51.4920423,7.98037811 C51.6896095,8.70114925 51.8756443,9.42161692 51.9220771,9.77031841 C51.9800423,9.43345274 52.1545448,8.71268159 52.3521119,7.99191045 L53.3402512,4.23722388 L52.4103806,4.23722388 L52.4103806,3.00508458 L55.165092,3.00508458 L55.165092,4.29549254 L54.607291,4.29549254 L52.5615149,11.5490299 L50.9457736,11.5490299 L48.8881617,4.29549254 Z" id="Fill-14" fill="#FFFFFF"></path><path d="M17.6243871,3.59675423 C17.6001085,3.88809751 17.4301582,4.64407264 17.2571731,5.23798806 C17.198601,5.43919701 17.0844915,5.54025672 16.8796408,5.54025672 C16.6526358,5.54025672 16.5015015,5.3994408 16.5103025,5.14057015 C16.5172826,4.9357194 16.5448995,4.73086866 16.5448995,4.37397313 C16.5448995,4.06138607 16.1670637,3.65077413 15.4975811,3.65077413 C14.8821184,3.65077413 14.4502627,3.97459005 14.4502627,4.52510746 C14.4502627,5.00036119 14.654203,5.24800299 14.9361383,5.57242587 C15.367994,6.06922687 15.5840736,6.30655025 16.1021184,6.87891841 C16.5895114,7.41699303 17.0629443,8.14201294 17.0629443,9.25397313 C17.0629443,10.6357294 15.8863423,11.8126348 13.9859343,11.8126348 C12.9604667,11.8126348 12.2372677,11.4454209 11.8806756,11.2727393 C11.7243821,11.1968687 11.6354617,11.0876149 11.6648995,10.851809 C11.6864468,10.6791274 11.9025264,9.78294328 12.1183025,9.10283881 C12.2123821,8.8066398 12.3234567,8.64943582 12.5932527,8.64943582 C12.7877851,8.64943582 12.9064468,8.76809751 12.9064468,9.03819701 C12.9064468,9.20147065 12.8800438,9.41906766 12.8633522,9.73984876 C12.8466607,10.0642716 12.7877851,10.8733562 14.0939741,10.8733562 C14.6878896,10.8733562 15.098198,10.4848985 15.098198,9.97717214 C15.098198,9.58871443 15.0296109,9.19418706 14.5583025,8.69253035 C14.2238647,8.33654527 13.9850239,8.07797811 13.608402,7.65613731 C12.8848995,6.84644577 12.5932527,6.26345572 12.5932527,5.33510249 C12.5932527,3.68324677 13.8997453,2.7764408 15.551601,2.7764408 C16.4153124,2.7764408 16.91181,2.97066965 17.2571731,3.11118209 C17.5345562,3.22377413 17.6459343,3.33788358 17.6243871,3.59675423" id="Fill-16" fill="#FFFFFF"></path><path d="M11.7500567,3.22969204 C11.7500567,3.43484627 11.6532458,3.53317463 11.45841,3.60752786 C11.2863353,3.67338358 11.1886139,3.73711493 11.1236687,4.03938358 C10.908196,5.04269701 10.6162458,6.81442836 10.1631463,10.2474234 C10.1531313,10.3229905 10.1412955,10.4416522 10.1412955,10.506294 C10.1412955,10.8625826 10.1431164,10.9348114 10.3573751,11.0355677 C10.5103303,11.107493 10.5625294,11.2082493 10.5625294,11.370309 C10.5625294,11.6076323 10.367997,11.7047468 10.0875791,11.7047468 C9.77438507,11.7047468 9.26362388,11.647692 8.78108657,11.648299 C8.35924577,11.648906 8.01448955,11.7047468 7.70129552,11.7047468 C7.30191244,11.7047468 7.20479801,11.5860851 7.20479801,11.3593836 C7.20479801,11.186702 7.29250448,11.0920154 7.4314995,11.0246423 C7.64879303,10.9193338 7.80053433,10.8741149 7.89582786,10.3876323 C8.30583284,8.29390597 8.77228557,4.59020448 8.80263383,4.25546318 C8.84754925,3.75987612 8.79170846,3.69432388 8.62995224,3.60752786 C8.4894398,3.53226418 8.40325075,3.4239209 8.40325075,3.2512393 C8.40325075,3.02453781 8.56500697,2.88432886 9.0402607,2.88432886 C9.29943483,2.88432886 9.63387264,2.93804527 10.1197483,2.93804527 C10.6056239,2.93804527 10.8538726,2.88432886 11.0914995,2.88432886 C11.6635642,2.88432886 11.7500567,3.00299055 11.7500567,3.22969204" id="Fill-18" fill="#FFFFFF"></path><polygon id="Fill-20" fill="#231F1F" points="53.3283244 19.3490179 52.830006 21.1699134 53.9286129 21.1699134 53.4302945 19.3490179"></polygon><path d="M48.6646468,18.7420527 L47.9502488,18.7420527 L47.9502488,19.9559831 L48.6646468,19.9559831 C49.2612935,19.9559831 49.5228955,19.7963512 49.5228955,19.3453761 C49.5228955,18.894401 49.2612935,18.7420527 48.6646468,18.7420527" id="Fill-22" fill="#231F1F"></path><path d="M54.6097493,22.990809 L54.2986796,22.0803612 L52.4595751,22.0803612 L52.1485055,22.990809 L51.0216746,22.990809 L50.7518786,22.990809 L49.4793761,22.990809 L48.4988239,21.1699134 L47.9501274,21.1699134 L47.9501274,22.990809 L46.736197,22.990809 L46.736197,17.5281224 L48.7155104,17.5281224 C50.0978736,17.5281224 50.9415552,18.0446498 50.9415552,19.33961 C50.9415552,20.183595 50.6450527,20.6998189 49.9391522,20.9398736 L50.8602219,22.6478736 L52.6501622,17.5281224 L54.1080925,17.5281224 L56.0063761,22.990809 L54.6097493,22.990809 Z M46.1292318,18.7420527 L44.6118189,18.7420527 L44.6118189,22.990809 L43.094406,22.990809 L43.094406,18.7420527 L41.576993,18.7420527 L41.576993,17.5281224 L46.1292318,17.5281224 L46.1292318,18.7420527 Z M41.4410328,21.9786945 L40.3836995,23.0363313 L38.7409483,21.3935801 L37.09759,23.0366348 L36.0402567,21.9793015 L37.6836149,20.3362468 L36.034794,18.6871224 L37.0921274,17.6297891 L38.7409483,19.27861 L40.3864308,17.6331274 L41.4437642,18.6907642 L39.7985851,20.3362468 L41.4410328,21.9786945 Z M35.8108239,22.990809 L32.1690328,22.990809 L32.1690328,17.5281224 L35.8108239,17.5281224 L35.8108239,18.7420527 L33.3829632,18.7420527 L33.3829632,19.9559831 L35.2038587,19.9559831 L35.2038587,20.8664308 L33.3829632,20.8664308 L33.3829632,21.7768786 L35.8108239,21.7768786 L35.8108239,22.990809 Z M57.054605,16.9081075 C57.054605,16.5800428 56.7887542,16.314192 56.4606896,16.314192 L30.9423562,16.314192 C30.6142915,16.314192 30.3481373,16.5800428 30.3481373,16.9081075 L30.3481373,23.6108239 C30.3481373,23.9388886 30.6142915,24.2047393 30.9423562,24.2047393 L56.4606896,24.2047393 C56.7887542,24.2047393 57.054605,23.9388886 57.054605,23.6108239 L57.054605,16.9081075 Z" id="Fill-24" fill="#231F1F"></path></g></g></g></g></svg>
