<svg height="37" viewBox="0 0 232 37" width="232" xmlns="http://www.w3.org/2000/svg"><g fill="#fff" fill-rule="evenodd" transform="translate(.163654 .31896)"><g transform="translate(56.751648 5.9082)"><path d="m9.16989881 7.81829667c0 1.27746086-.65414919 2.1389432-1.18822887 2.49521503-.50521051.3569279-1.18822887.5944425-1.96047923.5944425-.26769595 0-.5649172 0-.77225035-.0301814v-5.91096298c.26703984-.02952529.53407969-.06036282 1.03994631-.06036282 1.78201526 0 2.88101214 1.07012772 2.88101214 2.88232438zm-9.11937776 5.40640853v10.337132.0590506h2.61331618 2.58510313v-.0590506-7.3964131-1.4552687h.53407969c1.90142864 3.0594761 3.86190787 6.2377095 5.52516585 8.9107324h.921189 2.1973377 3.0594761v-.0590506c-.1476264-.2375146-1.0681594-1.5746821-1.6927833-2.4952151-4.3953314-6.4758801-4.7824408-7.0991918-4.9897739-7.396413v-.089232c.3864532-.1482826 1.0097649-.5937864 1.5438446-1.0694716.9218451-.7427251 2.1395993-2.58379092 2.1395993-5.13871264 0-4.27723028-2.7327296-5.97066967-4.72273409-6.50540546-1.33716756-.35627183-2.82196156-.5347358-4.72339021-.5347358-.80177564 0-2.22751907.0301814-2.88101214.05970669-.77290647.02952529-1.6042074.08923199-2.10941791.14828257v.05970669 9.65411355z"/><path d="m22.5901271 12.8684334c0 2.7327296.1482826 4.5442701.8608262 6.1196084 1.3968743 3.1480519 4.6932088 5.0783498 9.238135 5.0783498 4.3664623 0 7.5151704-2.3758017 8.6443487-4.9011981.7427251-1.663258.9500582-3.5049799.9500582-6.3558107v-2.5549217-9.74334553-.0597067h-2.6730229-2.7622548v.0597067 9.74334553 2.5549217c0 2.0195298-.1482826 3.4150919-.7433812 4.3658062-.7125437 1.1285222-1.9893484 1.7826714-3.5338491 1.7826714-1.5753382 0-3.030607-.6541492-3.7136253-1.8719034-.5045544-.9205329-.6534931-2.2268629-.6534931-4.2765742v-2.5549217-9.74334553-.0597067h-2.8219616-2.7917801v.0597067 9.74334553z"/><path d="m68.3208639 12.0660017c0 3.8619078-2.5253964 6.8918587-6.4456988 6.8918587-3.9511398 0-6.653688-3.0004256-6.653688-6.8623334 0-3.95048379 2.7622549-6.86167734 6.653688-6.86167734 3.7431506 0 6.4456988 3.00042554 6.4456988 6.80262674zm5.6137417-.1778079c0-6.65434414-4.9897739-11.73335006-11.9413393-11.73335006-7.0690105 0-12.386187 5.2279446-12.386187 11.91115796 0 6.6838694 5.2876513 11.911814 12.1788538 11.911814 7.0099599 0 12.1486725-5.2279446 12.1486725-12.0600966z"/><path d="m81.4143456 13.2247052v10.3076067.0885759h2.7622549 2.7615987v-.0590506-7.4856451-2.4656897h.0603629l4.0685849 5.1393687c2.5549217 3.237284 3.6539186 4.6039768 3.8317264 4.8414914v.0295253h3.4761108 3.5043238v-.0885759c-.237515-.2972213-1.157391-1.3371676-4.3664623-5.1393687l-6.0881147-7.2474745 5.1078751-6.00019491c2.584447-3.08965752 3.6243929-4.39664367 3.8330389-4.63415822v-.0597067h-3.3573537-3.2077587v.0597067c-.2375145.32674654-1.099653 1.45592483-3.2084147 4.24770499l-3.5935558 4.7529155h-.0603629v-1.63373269-7.33736251-.08923199h-2.7615987-2.7622549v.1194134 9.68363883z"/><path d="m115.387456 15.8983842v-.0597067c1.21841-3.0004255 1.693439-4.3664622 1.901429-5.1387126h.030181c.207989.7722504.652837 2.1382871 1.841066 5.1387126v.0597067zm5.376883 4.3959876c.683675 1.7229647 1.217754 3.0299508 1.277461 3.2379401v.0885759h3.326516 2.852143v-.0885759c-.089888-.2079893-.653493-1.5149754-4.516057-10.3371319l-5.762024-13.15909353h-.772907l-5.821731 13.15909353c-3.920958 8.8221565-4.514745 10.1291426-4.603977 10.3371319v.0885759h2.911194 2.732073v-.0885759c.089889-.2079893.623968-1.5149754 1.337824-3.2379401z"/><path d="m134.779666 13.2247052v10.2479.1482826h6.712083 5.643923v-4.632846h-.118757-.890352-1.306986-4.426169c-.118757 0-.118757-.0301814-.118757-.1495948v-5.6137418-2.9702441-9.68363883-.1194134h-2.643498-2.851487v.1194134 9.68363883z"/><path d="m161.359644 15.8983842v-.0597067c1.217754-3.0004255 1.693439-4.3664622 1.900773-5.1387126h.029525c.207989.7722504.653493 2.1382871 1.842378 5.1387126v.0597067zm5.376227 4.3959876c.683019 1.7229647 1.217754 3.0299508 1.276805 3.2379401v.0885759h3.327828 2.850831v-.0885759c-.089232-.2079893-.653493-1.5149754-4.514745-10.3371319l-5.76268-13.15909353h-.771595l-5.823043 13.15909353c-3.920302 8.8221565-4.514088 10.1291426-4.60332 10.3371319v.0885759h2.910537 2.73273v-.0885759c.089232-.2079893.623967-1.5149754 1.336511-3.2379401z"/></g><path d="m26.2475806 20.637561c.4858983-4.1302373 2.967661-8.0747797 5.4467796-8.0747797 2.4789153 0 3.4027119 3.9445424 2.2574237 8.0747797-.9776949 3.5263729-3.1891525 6.0496271-5.0465084 6.0496271-1.857356 0-3.0724068-2.5232542-2.6576949-6.0496271zm-8.0515933-10.0134915c-.0915254-2.08942376.1376949-2.54379664.7602712-2.54379664.8711187 0 3.5259661 2.79498304 3.1710509 14.60725424-.2302373 7.6690169-1.1831187 8.8104407-2.1398644 8.8104407-.5359322 0-.8908475-.2438644-.9577628-1.7766102zm21.1108475 8.7c0 6.507661-3.224339 12.2621695-8.1628475 15.7529491-.0217627-.0093559-.0384406-.0144407-.0496271-.0144407-1.9557966 1.6934238-2.4705763.0197289-2.5287457-.2019661l.278644-2.8889491c.0618305-.7928136.1415593-1.5103729.2717288-2.1042712.7446102-3.4016949 4.0112543-2.571661 5.952-9.0004068 2.4593899-8.1475932-.962644-10.7637966-2.8881356-10.7637966-1.9250847 0-6.3807457 2.6162034-7.1387796 10.7637966-.5983729 6.4287458 2.9959322 5.5987119 2.3975593 9.0004068-.1047458.5938983-.3081356 1.3114576-.559322 2.1042712l-.8385763 2.8096271c-.6317288 1.3035254-3.8229153 1.3741017-5.0068475.212339l-.0044745-.0400678c-.0648814-.6687458-.2412204-1.1800678-.2406102-1.7383729.0006102-.543661.4494915-.8383729.796678-1.3063729 1.2010169-1.2242034 1.4015593-4.183322 1.6313898-8.3908474.9459661-17.32576274-2.928-20.81918647-5.3672542-20.81918647-.8129492 0-1.9684068.85647458-1.6322034 5.38149153.3400678 4.57200004 1.662305 22.34969494 2.0863728 23.41769494.2259661.5792542.5031865 1.5272542.5269831 1.9675932.0158644.2938983-.0058983.8027797-.0345763 1.3818305-.6726101 1.2736271-2.458983 1.2901017-3.4566101.0492203l-.7562034-2.9926779c-.1277288-.5499661-.3158644-1.2246102-.4128814-1.8117966-.2162034-1.3096272.2088814-1.7526102.6258305-2.3306441.3915254-.5515932.8164068-1.2957966.5764068-3.3514576l-1.5742373-13.4633899c-.1795932-1.53599996-.7553898-2.24501691-1.1251525-2.24501691-.4928136 0-.7336272.88372881-.4637288 2.73945761l1.7499661 12.0185085c.2221016 1.5274576-.1549831 2.2732881-.832678 2.5541695l-2.617017-15.0671187c-.266644-1.53599996-.88250843-2.24501691-1.25227115-2.24501691-.49281356 0-.68379661.88372881-.3079322 2.73945761l2.96603385 14.6591187c-.7618983-.1871187-1.5518644-.9154577-1.95518639-2.6406102l-2.92311865-12.5129492c-.35857627-1.53599996-1.01735593-2.24501691-1.38691525-2.24501691-.49281356 0-.63071187.88372881-.144 2.73945761l3.40149152 12.9689492c.53918645 2.055661 1.24637287 2.7998644 1.88949157 3.3514576.5938983.5780339 1.1865762 1.0210169 1.4670508 2.3306441.1258983.5871864.1936271 1.2618305.2745763 1.8117966l.3821695 3.0221695c-.1051526.350644-.6724068 1.5699661-3.33559325.5751864-.0099661 0-.02155932.0024407-.0339661.0071187-5.29647458-3.4358645-8.8000678-9.4008814-8.8000678-16.184339 0-10.64684749 8.63064407-19.27769495 19.27749155-19.27769495 10.6470508 0 19.2776949 8.63084746 19.2776949 19.27769495z"/></g></svg>