<svg enable-background="new 0 0 612 792" height="240" viewBox="80 80 190 240" width="190" xmlns="http://www.w3.org/2000/svg"><path d="m243.838 290.649c.52 10.97-68.85 28.55-126.39 14.5-7.1-1.74-29.85-7.3-29.45-13.84.53-8.82 42.9-16.05 77.85-15.9 31.68.131 77.57 6.401 77.99 15.24" fill="#333" opacity=".06"/><path d="m170.936 114.882s-41.04-13.394-38.999 33.814c1.804 41.703-24.12 54.778-24.12 54.778s-33.205 79.386 56.356 95.693c10.486 1.909 24.684 1.127 32.912-8.679 6.223-7.415 7.665.902 19.387 1.127 11.722.226 61.993-24.422 37.984-88.704-3.074-8.23-17.132-32.011-28.178-43.057-11.046-11.045-10.257-23.557-14.089-32.123-3.833-8.566-21.417-28.178-41.253-12.849" fill="#afce11"/><path d="m230.889 183.924s45.433 64.504-3.926 91.427c0 0-14.023-11.218-20.754-3.927-6.73 7.292-15.705-18.509 19.071-30.288s5.609-57.212 5.609-57.212" fill="#95bb10" opacity=".62"/><path d="m166.833 118.852s-32.667-8.667-32 32.667c0 0 1 26.666-5.25 32.916 0 0 24-22.75 22-46.25s15.25-19.333 15.25-19.333" fill="#95bb10"/><path d="m160.833 244.935c0 8.468-6.865 15.333-15.333 15.333-8.469 0-15.334-6.865-15.334-15.333s6.865-15.333 15.334-15.333c8.468 0 15.333 6.865 15.333 15.333" fill="#fff"/><path d="m200.833 246.185c0 8.468-6.865 15.333-15.333 15.333-8.469 0-15.334-6.865-15.334-15.333s6.865-15.333 15.334-15.333c8.468 0 15.333 6.865 15.333 15.333" fill="#fff"/><path d="m151.522 252.361c0 3.757-3.046 6.803-6.803 6.803s-6.802-3.046-6.802-6.803 3.045-6.803 6.802-6.803 6.803 3.046 6.803 6.803" fill="#333"/><path d="m188.625 253.306c0 3.523-2.856 6.379-6.379 6.379s-6.379-2.856-6.379-6.379 2.856-6.379 6.379-6.379 6.379 2.856 6.379 6.379" fill="#333"/><path d="m202.39 249.749c2.685-8.323-3.553-17.205-12.66-19.475-9.107-2.269-21.177 3.994-20.319 11.256.033.275 15.059-.929 32.979 8.219" fill="#95bb10"/><path d="m128.997 248.999c-2.685-8.323 3.553-17.205 12.66-19.475 9.107-2.269 21.177 3.994 20.319 11.256-.034.275-15.059-.929-32.979 8.219" fill="#95bb10"/><path d="m149.838 253c0 1.383-1.121 2.505-2.505 2.505-1.383 0-2.505-1.122-2.505-2.505s1.122-2.505 2.505-2.505c1.384 0 2.505 1.122 2.505 2.505" fill="#fff"/><path d="m186.838 253.833c0 1.383-1.121 2.505-2.505 2.505-1.383 0-2.505-1.122-2.505-2.505s1.122-2.505 2.505-2.505c1.384 0 2.505 1.122 2.505 2.505" fill="#fff"/><g fill="#333"><path d="m121.688 231.725s14.938-7.443 18.771-14.909c.287-.56 1.842 3.246 1.842 3.246.007.267-.073.517-.217.665-1.347 1.384-8.553 8.42-19.362 12.209-.178.063-.367-.031-.486-.243z"/><path d="m203.176 229.774s-14.938-7.903-18.771-15.83c-.287-.594-1.842 3.446-1.842 3.446-.007.284.073.549.217.706 1.347 1.47 8.553 8.941 19.362 12.964.178.066.367-.033.486-.258z"/><path d="m168.779 119.694s-10.404-28.614 15.596-30.947l-.542 5.375s-13.125-.042-14.125 9.958 1.334 15.667 1.334 15.667z"/><path d="m179.885 275.75c.874.466.953 1.625.009 1.923-4.861 1.533-13.912 2.058-18.176 2.369-2.168.158-5.165-.149-5.728-4.755-.491-4.018 16.395-3.537 23.895.463"/></g></svg>