<svg height="37" viewBox="0 0 40 37" width="40" xmlns="http://www.w3.org/2000/svg"><path d="m26.2475806 20.637561c.4858983-4.1302373 2.967661-8.0747797 5.4467796-8.0747797 2.4789153 0 3.4027119 3.9445424 2.2574237 8.0747797-.9776949 3.5263729-3.1891525 6.0496271-5.0465084 6.0496271-1.857356 0-3.0724068-2.5232542-2.6576949-6.0496271zm-8.0515933-10.0134915c-.0915254-2.08942376.1376949-2.54379664.7602712-2.54379664.8711187 0 3.5259661 2.79498304 3.1710509 14.60725424-.2302373 7.6690169-1.1831187 8.8104407-2.1398644 8.8104407-.5359322 0-.8908475-.2438644-.9577628-1.7766102zm21.1108475 8.7c0 6.507661-3.224339 12.2621695-8.1628475 15.7529491-.0217627-.0093559-.0384406-.0144407-.0496271-.0144407-1.9557966 1.6934238-2.4705763.0197289-2.5287457-.2019661l.278644-2.8889491c.0618305-.7928136.1415593-1.5103729.2717288-2.1042712.7446102-3.4016949 4.0112543-2.571661 5.952-9.0004068 2.4593899-8.1475932-.962644-10.7637966-2.8881356-10.7637966-1.9250847 0-6.3807457 2.6162034-7.1387796 10.7637966-.5983729 6.4287458 2.9959322 5.5987119 2.3975593 9.0004068-.1047458.5938983-.3081356 1.3114576-.559322 2.1042712l-.8385763 2.8096271c-.6317288 1.3035254-3.8229153 1.3741017-5.0068475.212339l-.0044745-.0400678c-.0648814-.6687458-.2412204-1.1800678-.2406102-1.7383729.0006102-.543661.4494915-.8383729.796678-1.3063729 1.2010169-1.2242034 1.4015593-4.183322 1.6313898-8.3908474.9459661-17.32576274-2.928-20.81918647-5.3672542-20.81918647-.8129492 0-1.9684068.85647458-1.6322034 5.38149153.3400678 4.57200004 1.662305 22.34969494 2.0863728 23.41769494.2259661.5792542.5031865 1.5272542.5269831 1.9675932.0158644.2938983-.0058983.8027797-.0345763 1.3818305-.6726101 1.2736271-2.458983 1.2901017-3.4566101.0492203l-.7562034-2.9926779c-.1277288-.5499661-.3158644-1.2246102-.4128814-1.8117966-.2162034-1.3096272.2088814-1.7526102.6258305-2.3306441.3915254-.5515932.8164068-1.2957966.5764068-3.3514576l-1.5742373-13.4633899c-.1795932-1.53599996-.7553898-2.24501691-1.1251525-2.24501691-.4928136 0-.7336272.88372881-.4637288 2.73945761l1.7499661 12.0185085c.2221016 1.5274576-.1549831 2.2732881-.832678 2.5541695l-2.617017-15.0671187c-.266644-1.53599996-.88250843-2.24501691-1.25227115-2.24501691-.49281356 0-.68379661.88372881-.3079322 2.73945761l2.96603385 14.6591187c-.7618983-.1871187-1.5518644-.9154577-1.95518639-2.6406102l-2.92311865-12.5129492c-.35857627-1.53599996-1.01735593-2.24501691-1.38691525-2.24501691-.49281356 0-.63071187.88372881-.144 2.73945761l3.40149152 12.9689492c.53918645 2.055661 1.24637287 2.7998644 1.88949157 3.3514576.5938983.5780339 1.1865762 1.0210169 1.4670508 2.3306441.1258983.5871864.1936271 1.2618305.2745763 1.8117966l.3821695 3.0221695c-.1051526.350644-.6724068 1.5699661-3.33559325.5751864-.0099661 0-.02155932.0024407-.0339661.0071187-5.29647458-3.4358645-8.8000678-9.4008814-8.8000678-16.184339 0-10.64684749 8.63064407-19.27769495 19.27749155-19.27769495 10.6470508 0 19.2776949 8.63084746 19.2776949 19.27769495z" fill="#fff"/></svg>