<svg enable-background="new 0 0 16 16" viewBox="0 0 16 16" xmlns="http://www.w3.org/2000/svg"><path d="m16 16h-16v-16h16zm-2.0029-12.392c.0246-.3075-.1076-.4427-.4349-.5779-.4105-.1676-1.0007-.3981-2.0259-.3981-1.9614 0-3.5139 1.0775-3.5139 3.0404 0 1.1036.3459 1.7953 1.2051 2.7576.4473.5011.7301.8085 1.1283 1.2312.5595.5964.641 1.0652.641 1.5263 0 .6026-.4873 1.0637-1.1928 1.0637-1.5509 0-1.4817-.9607-1.4618-1.3465.0184-.3797.0507-.6394.0507-.8331 0-.3197-.1414-.4611-.372-.4611-.3213 0-.4519.186-.5641.538-.2552.8085-.5119 1.8722-.538 2.0781-.0338.2798.0707.4089.2567.4995.4227.2044 1.2819.641 2.5009.641 2.258 0 3.6552-1.3988 3.6552-3.0404 0-1.3203-.5625-2.1812-1.1421-2.8206-.6149-.6809-.8715-.9622-1.385-1.5525-.3336-.3843-.5764-.6795-.5764-1.2435 0-.6549.5119-1.0391 1.2435-1.0391.7947 0 1.2435.4873 1.2435.8593 0 .4242-.0322.6671-.0415.9099-.0107.3074.1691.4749.4381.4749.2428 0 .3796-.1198.4488-.3581.206-.7054.4074-1.6031.4366-1.949m-6.5957-.5518c0-.2691-.1029-.4104-.7854-.4104-.2829 0-.578.0645-1.1544.0645s-.9745-.0646-1.282-.0646c-.5641 0-.7563.1676-.7563.4365 0 .2045.1014.3336.269.4227.1922.103.2598.1814.206.7701-.0353.3982-.5902 4.7974-1.0775 7.2844-.1137.578-.2936.6317-.5518.7563-.1645.0799-.269.1937-.269.3981 0 .2691.1153.4104.5902.4106.372 0 .7809-.0661 1.2819-.0676.5733 0 1.1805.0676 1.5525.0676.3335 0 .5641-.1153.5641-.3981 0-.1922-.0615-.3121-.2428-.3981-.2552-.1199-.2567-.206-.2567-.6287 0-.0769.0139-.2168.0261-.3075.5395-4.078.8853-6.1822 1.1421-7.3735.0784-.3597.1937-.435.3981-.5134.2306-.0893.3459-.2046.3459-.4489"/></svg>