<?xml version="1.0" encoding="utf-8"?>
<!-- Generator: Adobe Illustrator 18.1.1, SVG Export Plug-In . SVG Version: 6.00 Build 0)  -->
<!DOCTYPE svg PUBLIC "-//W3C//DTD SVG 1.1//EN" "http://www.w3.org/Graphics/SVG/1.1/DTD/svg11.dtd">
<svg version="1.1" id="Layer_1" xmlns="http://www.w3.org/2000/svg" xmlns:xlink="http://www.w3.org/1999/xlink" x="0px" y="0px"
	 viewBox="0 348.5 1024 327" enable-background="new 0 348.5 1024 327" xml:space="preserve">
<g>
	<polygon fill="#FFFFFF" points="875.5,480.5 856.5,537.3 898.4,537.3 879.4,480.5 	"/>
	<path fill="#FFFFFF" d="M697.8,454.4H674v46.1h23.8c22.7,0,32.7-6,32.7-23.2C730.5,460.1,720.5,454.4,697.8,454.4z"/>
	<path fill="#FFFFFF" d="M1010.8,348.5h-127h-173H601h-17.2h-271h-11.7H12.9c-7.4,0-12.9,5.7-12.9,12.9v301.5
		c0,7.4,5.5,12.6,12.9,12.6h288.2h11.7h271h17.2h109.9h173h127c7.4,0,13.2-5.2,13.2-12.6V361.4C1024,354.2,1018,348.5,1010.8,348.5z
		 M210.3,456h-90.6v35.3h64.5v43h-64.5v35.3h90.6v44.5H64.5V409.9h145.8V456z M422.3,574.6L382,615l-62.6-62.6L256.7,615l-40.4-40.4
		L279,512L216,449.1l40.4-40.4l62.9,62.9l62.8-62.8l40.4,40.4L359.7,512L422.3,574.6z M604.9,456H545v158.1h-55.3V456h-59.9v-46.1
		h175V456z M924.4,614.1l-11.8-35.3h-70.2l-11.8,35.3h-43h-10.3h-48.5l-37.5-70.6H674v70.6h-53.7V409.9h79.4
		c52.7,0,84.9,17.2,84.9,66.6c0,32.2-11.4,50.7-38.2,59.7l35.2,67.1l68.3-193.4h55.6l72.3,204.2H924.4z"/>
</g>
</svg>
