<svg height="60" viewBox="0 0 290 60" width="290" xmlns="http://www.w3.org/2000/svg"><g fill="none" fill-rule="evenodd"><path d="m290 60h-290v-60h290z" fill="#e0211d"/><g fill="#fff"><path d="m144.453435 16.7398744v4.1083576h-.465064l-1.020727-1.6126138c-.590391-.8800125-1.878379-1.4460529-2.572956-1.4505064-2.671606-.0146965-4.08039 1.5756498-4.08039 3.7360447 0 1.4776727.231526 2.3349723 1.758086 4.5884454l3.920335 5.1504776c2.074169 3.0608935 3.05463 4.5897815 3.05463 7.3157714 0 4.2820443-3.713975 6.4259613-8.403881 6.4259613-.215923 0-2.758177-.0529967-4.494117-.7415085v-5.4435182h.468085l1.416837 2.787003c.590894 1.0211885 1.676548 1.5769858 2.705328 1.5769858 2.349987.0017814 3.861447-1.2198148 3.863964-3.2880222.001006-2.2917732-1.681079-4.0598144-2.411391-5.1674009l-4.064788-6.1618685c-1.449049-2.1960229-2.234726-3.8353578-2.234726-5.6296746 0-6.7256821 6.456045-6.9483573 8.057599-6.9332154 1.552733.0124698 3.155797.2289101 4.503176.7392817"/><path d="m156.87292 33.5873335-1.861266-12.8341084-2.665063 12.8341084zm7.907108 10.9836775h-8.183933l-.00302-.3674141 1.590482-.6800501-1.109311-8.0381298h-5.030652l-1.589978 8.0528263 2.23674.6653536v.3674141h-6.631199v-.3674141l1.428916-.6653536 5.826396-27.5382433h5.221913l4.744265 27.5382433 1.499381.6653536z"/><path d="m185.593208 16v.3919084l-2.029373.9365719v27.6878811h-1.833081l-10.714609-23.6926425v22.0613239l1.987095.7508608v.4342167h-6.33827v-.4342167l1.861266-.7508608v-26.2030828l-1.434956-.7900516v-.3919084h6.715254l7.257829 16.5403147v-15.2118344l-1.53864-1.0038198v-.3246605z"/><path d="m128.999075 16.7398744v4.1083576h-.465065l-1.020726-1.6126138c-.590894-.8800125-1.878379-1.4460529-2.57346-1.4505064-2.671102-.0146965-4.079383 1.5756498-4.079383 3.7360447 0 1.4776727.231023 2.3349723 1.757583 4.5884454l3.920335 5.1504776c2.073665 3.0608935 3.054127 4.5897815 3.054127 7.3157714 0 4.2820443-3.713976 6.4259613-8.403379 6.4259613-.21542 0-2.75868-.0529967-4.494116-.7415085v-5.4435182h.468084l1.416837 2.787003c.590894 1.0211885 1.676549 1.5769858 2.705329 1.5769858 2.349986.0017814 3.861447-1.2198148 3.86346-3.2880222.001007-2.2917732-1.680575-4.0598144-2.410888-5.1674009l-4.064787-6.1618685c-1.448546-2.1960229-2.234727-3.8353578-2.234727-5.6296746 0-6.7256821 6.456046-6.9483573 8.0576-6.9332154 1.552229.0124698 3.1563.2289101 4.503176.7392817"/><path d="m114.870321 16v.3927991l-1.601554.8590809v22.0052097c0 3.735154-2.616241 5.6434806-6.618113 5.6434806-7.5411971 0-7.5628397-5.5058673-7.5628397-7.1327324v-20.5159579l-1.9674657-.8590809v-.3927991h9.0108824v.3927991l-1.929214.8590809v21.3042282c0 2.380398.41423 3.9774246 3.241864 3.9827688 2.267946.0040082 2.775793-1.3324885 2.933834-2.1546053.193777-1.0122815.154518-2.2512464.154518-3.909286v-19.2231057l-1.52656-.8590809v-.3927991z"/><path d="m64.4599553 43.4687687-1.8189872.6680256-.0020133.434662h13.8376908v-4.4922497l-.4761377-.0026721-1.4399896 2.5990651h-4.9778039v-25.286997l2.1697991-.9285556v-.460047h-9.3989393l-.0055365.460047 2.1119176.9218754z"/><path d="m35.2903135 18.0419317v25.1413674l2.6061748 1.0202978.0035232.3674141h-10.2837704v-.3674141l2.5558431-1.0202978v-25.1413674h-3.426078l-1.3252333 2.5892673h-.4207729v-4.631199h15.3808604v4.631199h-.3951038l-1.3267433-2.5892673z"/><path d="m52.5559868 33.5873335-1.8612658-12.8341084-2.6650628 12.8341084zm7.9071081 10.9836775h-8.1839324l-.0030199-.3674141 1.5904814-.6800501-1.1098137-8.0381298h-5.0301489l-1.589978 8.0528263 2.2362369.6653536v.3674141h-6.6306965v-.3674141l1.4289166-.6653536 5.8258928-27.5382433h5.2219126l4.7452715 27.5382433 1.4988776.6653536z"/><path d="m86.6471855 17.6958944c-3.435641-.0035628-3.4255746 9.5077862-3.4255746 12.5098934 0 10.6937543.9024471 13.2527378 3.0712395 13.2545192 3.4351377.0035628 3.4245681-10.0671463 3.4245681-13.0692535 0-10.6937543-.9024472-12.6915963-3.070233-12.6951591m.0538549-1.6958944c5.3064698 0 8.4396174 4.3679969 8.4396174 13.9724241 0 9.6721205-3.2791095 15.2109437-8.880523 15.2109437-5.3059664 0-8.4577367-5.2582524-8.4577367-14.8617889 0-9.6725658 3.2962222-14.3215789 8.8986423-14.3215789"/><path d="m260.665396 18.0419317v25.1413674l2.606175 1.0202978.00453.3674141h-10.284274v-.3674141l2.555843-1.0202978v-25.1413674h-3.426078l-1.325233 2.5892673h-.42027v-4.631199h15.380357v4.631199h-.395103l-1.326744-2.5892673z"/><path d="m241.872405 33.5873335-1.861266-12.8341084-2.665062 12.8341084zm7.907108 10.9836775h-8.183932l-.003523-.3674141 1.590481-.6800501-1.108807-8.0381298h-5.030652l-1.589978 8.0528263 2.23674.6653536v.3674141h-6.631703v-.3674141l1.42942-.6653536 5.826396-27.5382433h5.221913l4.744264 27.5382433 1.499381.6653536z"/><path d="m196.115572 17.6958944c-3.436144-.0044535-3.425072 9.5073408-3.425072 12.5098934 0 10.6937543.900938 13.2518471 3.07124 13.2554099 3.433124.0022268 3.424568-10.0684823 3.424568-13.0705895 0-10.6937543-.902447-12.6920417-3.070736-12.6947138m.053855-1.6958944c5.305463 0 8.439114 4.3675516 8.439114 13.9719788 0 9.6721205-3.277096 15.2109437-8.881027 15.2109437-5.304959 0-8.45673-5.2582525-8.45673-14.8622343 0-9.6716751 3.297229-14.3206882 8.898643-14.3206882"/><path d="m229.306067 44.5701203h-8.764257v-.3674141l1.981055-.7406178v-22.2465896l-5.384484 23.4753114h-2.003201l-5.428273-23.439238v22.1432683l2.24731.8078657v.3674141h-6.653345v-.3674141l1.931226-.8078657v-26.1986293l-1.333286-.8043028v-.3919084h7.285008l4.363758 19.0088921 4.381876-19.0088921h7.335844v.3919084l-1.674535.8043028v26.2658772l1.715304.7406178z"/></g></g></svg>